<svg xmlns="http://www.w3.org/2000/svg" width="48" height="38" viewBox="0 0 48 38"><g transform="translate(-444 -890)"><rect width="48" height="38" rx="5" transform="translate(444 890)" fill="#f5f5f5"/><path d="M6.232,3.6l.726-.726a.782.782,0,0,1,1.109,0l6.36,6.357a.782.782,0,0,1,0,1.109L8.068,16.7a.782.782,0,0,1-1.109,0l-.726-.726a.786.786,0,0,1,.013-1.122L10.188,11.1H.785A.783.783,0,0,1,0,10.314V9.267a.783.783,0,0,1,.785-.785h9.4L6.245,4.726A.78.78,0,0,1,6.232,3.6Z" transform="translate(460.672 899.209)"/></g></svg>