<svg xmlns="http://www.w3.org/2000/svg" width="46" height="44" viewBox="0 0 46 44"><g transform="translate(-257 -5014)"><rect width="46" height="44" rx="3" transform="translate(257 5014)" fill="#ceb8a3"/><path d="M11.946,8.058a6.125,6.125,0,1,0,6.125,6.125A6.116,6.116,0,0,0,11.946,8.058Zm0,10.108a3.982,3.982,0,1,1,3.982-3.982,3.99,3.99,0,0,1-3.982,3.982Zm7.8-10.358a1.429,1.429,0,1,1-1.429-1.429A1.425,1.425,0,0,1,19.75,7.807Zm4.057,1.45a7.07,7.07,0,0,0-1.93-5.006,7.117,7.117,0,0,0-5.006-1.93c-1.973-.112-7.885-.112-9.857,0A7.107,7.107,0,0,0,2.009,4.246,7.094,7.094,0,0,0,.079,9.252c-.112,1.973-.112,7.885,0,9.857a7.07,7.07,0,0,0,1.93,5.006,7.126,7.126,0,0,0,5.006,1.93c1.973.112,7.885.112,9.857,0a7.07,7.07,0,0,0,5.006-1.93,7.117,7.117,0,0,0,1.93-5.006c.112-1.973.112-7.879,0-9.852ZM21.259,21.226A4.032,4.032,0,0,1,18.988,23.5c-1.573.624-5.3.48-7.042.48s-5.475.139-7.042-.48a4.032,4.032,0,0,1-2.271-2.271c-.624-1.573-.48-5.3-.48-7.042s-.139-5.475.48-7.042A4.032,4.032,0,0,1,4.9,4.87c1.573-.624,5.3-.48,7.042-.48s5.475-.139,7.042.48a4.032,4.032,0,0,1,2.271,2.271c.624,1.573.48,5.3.48,7.042S21.883,19.658,21.259,21.226Z" transform="translate(268.057 5021.816)" fill="#fff"/></g></svg>