<svg xmlns="http://www.w3.org/2000/svg" xmlns:xlink="http://www.w3.org/1999/xlink" width="379" height="133" viewBox="0 0 379 133"><defs><clipPath id="a"><rect width="379" height="133" fill="none"/></clipPath></defs><g opacity="0.55" clip-path="url(#a)"><g transform="translate(-603 -883)"><text transform="translate(603 937)" fill="#ceb8a3" font-size="50" font-family="SegoeUI, Segoe UI"><tspan x="0" y="0">.</tspan></text></g><g transform="translate(-572 -883)"><text transform="translate(603 937)" fill="#ceb8a3" font-size="50" font-family="SegoeUI, Segoe UI"><tspan x="0" y="0">.</tspan></text></g><g transform="translate(-541 -883)"><text transform="translate(603 937)" fill="#ceb8a3" font-size="50" font-family="SegoeUI, Segoe UI"><tspan x="0" y="0">.</tspan></text></g><g transform="translate(-510 -883)"><text transform="translate(603 937)" fill="#ceb8a3" font-size="50" font-family="SegoeUI, Segoe UI"><tspan x="0" y="0">.</tspan></text></g><g transform="translate(-479 -883)"><text transform="translate(603 937)" fill="#ceb8a3" font-size="50" font-family="SegoeUI, Segoe UI"><tspan x="0" y="0">.</tspan></text></g><g transform="translate(-448 -883)"><text transform="translate(603 937)" fill="#ceb8a3" font-size="50" font-family="SegoeUI, Segoe UI"><tspan x="0" y="0">.</tspan></text></g><g transform="translate(-417 -883)"><text transform="translate(603 937)" fill="#ceb8a3" font-size="50" font-family="SegoeUI, Segoe UI"><tspan x="0" y="0">.</tspan></text></g><g transform="translate(-386 -883)"><text transform="translate(603 937)" fill="#ceb8a3" font-size="50" font-family="SegoeUI, Segoe UI"><tspan x="0" y="0">.</tspan></text></g><g transform="translate(-355 -883)"><text transform="translate(603 937)" fill="#ceb8a3" font-size="50" font-family="SegoeUI, Segoe UI"><tspan x="0" y="0">.</tspan></text></g><g transform="translate(-324 -883)"><text transform="translate(603 937)" fill="#ceb8a3" font-size="50" font-family="SegoeUI, Segoe UI"><tspan x="0" y="0">.</tspan></text></g><g transform="translate(-293 -883)"><text transform="translate(603 937)" fill="#ceb8a3" font-size="50" font-family="SegoeUI, Segoe UI"><tspan x="0" y="0">.</tspan></text></g><g transform="translate(-262 -883)"><text transform="translate(603 937)" fill="#ceb8a3" font-size="50" font-family="SegoeUI, Segoe UI"><tspan x="0" y="0">.</tspan></text></g><g transform="translate(-231 -883)"><text transform="translate(603 937)" fill="#ceb8a3" font-size="50" font-family="SegoeUI, Segoe UI"><tspan x="0" y="0">.</tspan></text></g><g transform="translate(-603 -843)"><text transform="translate(603 937)" fill="#ceb8a3" font-size="50" font-family="SegoeUI, Segoe UI"><tspan x="0" y="0">.</tspan></text></g><g transform="translate(-572 -843)"><text transform="translate(603 937)" fill="#ceb8a3" font-size="50" font-family="SegoeUI, Segoe UI"><tspan x="0" y="0">.</tspan></text></g><g transform="translate(-541 -843)"><text transform="translate(603 937)" fill="#ceb8a3" font-size="50" font-family="SegoeUI, Segoe UI"><tspan x="0" y="0">.</tspan></text></g><g transform="translate(-510 -843)"><text transform="translate(603 937)" fill="#ceb8a3" font-size="50" font-family="SegoeUI, Segoe UI"><tspan x="0" y="0">.</tspan></text></g><g transform="translate(-479 -843)"><text transform="translate(603 937)" fill="#ceb8a3" font-size="50" font-family="SegoeUI, Segoe UI"><tspan x="0" y="0">.</tspan></text></g><g transform="translate(-448 -843)"><text transform="translate(603 937)" fill="#ceb8a3" font-size="50" font-family="SegoeUI, Segoe UI"><tspan x="0" y="0">.</tspan></text></g><g transform="translate(-417 -843)"><text transform="translate(603 937)" fill="#ceb8a3" font-size="50" font-family="SegoeUI, Segoe UI"><tspan x="0" y="0">.</tspan></text></g><g transform="translate(-386 -843)"><text transform="translate(603 937)" fill="#ceb8a3" font-size="50" font-family="SegoeUI, Segoe UI"><tspan x="0" y="0">.</tspan></text></g><g transform="translate(-355 -843)"><text transform="translate(603 937)" fill="#ceb8a3" font-size="50" font-family="SegoeUI, Segoe UI"><tspan x="0" y="0">.</tspan></text></g><g transform="translate(-324 -843)"><text transform="translate(603 937)" fill="#ceb8a3" font-size="50" font-family="SegoeUI, Segoe UI"><tspan x="0" y="0">.</tspan></text></g><g transform="translate(-293 -843)"><text transform="translate(603 937)" fill="#ceb8a3" font-size="50" font-family="SegoeUI, Segoe UI"><tspan x="0" y="0">.</tspan></text></g><g transform="translate(-262 -843)"><text transform="translate(603 937)" fill="#ceb8a3" font-size="50" font-family="SegoeUI, Segoe UI"><tspan x="0" y="0">.</tspan></text></g><g transform="translate(-231 -843)"><text transform="translate(603 937)" fill="#ceb8a3" font-size="50" font-family="SegoeUI, Segoe UI"><tspan x="0" y="0">.</tspan></text></g><g transform="translate(-603 -803)"><text transform="translate(603 937)" fill="#ceb8a3" font-size="50" font-family="SegoeUI, Segoe UI"><tspan x="0" y="0">.</tspan></text></g><g transform="translate(-572 -803)"><text transform="translate(603 937)" fill="#ceb8a3" font-size="50" font-family="SegoeUI, Segoe UI"><tspan x="0" y="0">.</tspan></text></g><g transform="translate(-541 -803)"><text transform="translate(603 937)" fill="#ceb8a3" font-size="50" font-family="SegoeUI, Segoe UI"><tspan x="0" y="0">.</tspan></text></g><g transform="translate(-510 -803)"><text transform="translate(603 937)" fill="#ceb8a3" font-size="50" font-family="SegoeUI, Segoe UI"><tspan x="0" y="0">.</tspan></text></g><g transform="translate(-479 -803)"><text transform="translate(603 937)" fill="#ceb8a3" font-size="50" font-family="SegoeUI, Segoe UI"><tspan x="0" y="0">.</tspan></text></g><g transform="translate(-448 -803)"><text transform="translate(603 937)" fill="#ceb8a3" font-size="50" font-family="SegoeUI, Segoe UI"><tspan x="0" y="0">.</tspan></text></g><g transform="translate(-417 -803)"><text transform="translate(603 937)" fill="#ceb8a3" font-size="50" font-family="SegoeUI, Segoe UI"><tspan x="0" y="0">.</tspan></text></g><g transform="translate(-386 -803)"><text transform="translate(603 937)" fill="#ceb8a3" font-size="50" font-family="SegoeUI, Segoe UI"><tspan x="0" y="0">.</tspan></text></g><g transform="translate(-355 -803)"><text transform="translate(603 937)" fill="#ceb8a3" font-size="50" font-family="SegoeUI, Segoe UI"><tspan x="0" y="0">.</tspan></text></g><g transform="translate(-324 -803)"><text transform="translate(603 937)" fill="#ceb8a3" font-size="50" font-family="SegoeUI, Segoe UI"><tspan x="0" y="0">.</tspan></text></g><g transform="translate(-293 -803)"><text transform="translate(603 937)" fill="#ceb8a3" font-size="50" font-family="SegoeUI, Segoe UI"><tspan x="0" y="0">.</tspan></text></g><g transform="translate(-262 -803)"><text transform="translate(603 937)" fill="#ceb8a3" font-size="50" font-family="SegoeUI, Segoe UI"><tspan x="0" y="0">.</tspan></text></g><g transform="translate(-231 -803)"><text transform="translate(603 937)" fill="#ceb8a3" font-size="50" font-family="SegoeUI, Segoe UI"><tspan x="0" y="0">.</tspan></text></g><g transform="translate(-603 -763)"><text transform="translate(603 937)" fill="#ceb8a3" font-size="50" font-family="SegoeUI, Segoe UI"><tspan x="0" y="0">.</tspan></text></g><g transform="translate(-572 -763)"><text transform="translate(603 937)" fill="#ceb8a3" font-size="50" font-family="SegoeUI, Segoe UI"><tspan x="0" y="0">.</tspan></text></g><g transform="translate(-541 -763)"><text transform="translate(603 937)" fill="#ceb8a3" font-size="50" font-family="SegoeUI, Segoe UI"><tspan x="0" y="0">.</tspan></text></g><g transform="translate(-510 -763)"><text transform="translate(603 937)" fill="#ceb8a3" font-size="50" font-family="SegoeUI, Segoe UI"><tspan x="0" y="0">.</tspan></text></g><g transform="translate(-479 -763)"><text transform="translate(603 937)" fill="#ceb8a3" font-size="50" font-family="SegoeUI, Segoe UI"><tspan x="0" y="0">.</tspan></text></g><g transform="translate(-448 -763)"><text transform="translate(603 937)" fill="#ceb8a3" font-size="50" font-family="SegoeUI, Segoe UI"><tspan x="0" y="0">.</tspan></text></g><g transform="translate(-417 -763)"><text transform="translate(603 937)" fill="#ceb8a3" font-size="50" font-family="SegoeUI, Segoe UI"><tspan x="0" y="0">.</tspan></text></g><g transform="translate(-386 -763)"><text transform="translate(603 937)" fill="#ceb8a3" font-size="50" font-family="SegoeUI, Segoe UI"><tspan x="0" y="0">.</tspan></text></g><g transform="translate(-355 -763)"><text transform="translate(603 937)" fill="#ceb8a3" font-size="50" font-family="SegoeUI, Segoe UI"><tspan x="0" y="0">.</tspan></text></g><g transform="translate(-324 -763)"><text transform="translate(603 937)" fill="#ceb8a3" font-size="50" font-family="SegoeUI, Segoe UI"><tspan x="0" y="0">.</tspan></text></g><g transform="translate(-293 -763)"><text transform="translate(603 937)" fill="#ceb8a3" font-size="50" font-family="SegoeUI, Segoe UI"><tspan x="0" y="0">.</tspan></text></g><g transform="translate(-262 -763)"><text transform="translate(603 937)" fill="#ceb8a3" font-size="50" font-family="SegoeUI, Segoe UI"><tspan x="0" y="0">.</tspan></text></g><g transform="translate(-231 -763)"><text transform="translate(603 937)" fill="#ceb8a3" font-size="50" font-family="SegoeUI, Segoe UI"><tspan x="0" y="0">.</tspan></text></g></g></svg>