<svg xmlns="http://www.w3.org/2000/svg" width="46" height="44" viewBox="0 0 46 44">
  <g id="Group_50" data-name="Group 50" transform="translate(-471 -6144)">
    <rect id="Rectangle_123" data-name="Rectangle 123" width="46" height="44" rx="3" transform="translate(471 6144)" fill="#ceb8a3"/>
    <path id="Icon_awesome-snapchat-ghost" data-name="Icon awesome-snapchat-ghost" d="M30.638,23.709c-.313.729-1.634,1.265-4.04,1.638a11.249,11.249,0,0,0-.39,1.437.694.694,0,0,1-.727.532h-.018c-.563,0-1.152-.259-2.33-.259a4.746,4.746,0,0,0-3.374,1.235,6.755,6.755,0,0,1-4.44,1.643,6.888,6.888,0,0,1-4.37-1.644,4.741,4.741,0,0,0-3.373-1.234,22.653,22.653,0,0,0-2.33.283A.712.712,0,0,1,4.5,26.8a11.109,11.109,0,0,0-.391-1.447C2.869,25.158.072,24.67,0,23.422a.637.637,0,0,1,.532-.664c4.173-.687,6.053-4.972,6.131-5.154l.014-.031a1.363,1.363,0,0,0,.148-1.125c-.3-.713-1.612-.969-2.162-1.187-1.422-.562-1.62-1.207-1.536-1.65a1.544,1.544,0,0,1,1.979-.927,3.432,3.432,0,0,0,1.412.378,1.224,1.224,0,0,0,.6-.13c-.123-2.155-.426-5.235.341-6.955a8.171,8.171,0,0,1,7.585-4.894l.606-.005a8.115,8.115,0,0,1,7.6,4.9c.766,1.718.465,4.785.342,6.958a1.175,1.175,0,0,0,.516.128,3.583,3.583,0,0,0,1.324-.375,1.623,1.623,0,0,1,1.228,0h0a1.246,1.246,0,0,1,.935,1.072c.011.585-.511,1.089-1.552,1.5-.127.05-.282.1-.446.151-.588.186-1.475.468-1.716,1.036a1.362,1.362,0,0,0,.148,1.124c.005.01.01.021.014.031.078.182,1.956,4.466,6.131,5.154A.655.655,0,0,1,30.638,23.709Z" transform="translate(478.647 6150.488)" fill="#fff"/>
  </g>
</svg>
