<svg xmlns="http://www.w3.org/2000/svg" width="46" height="44" viewBox="0 0 46 44"><g transform="translate(-331 -5014)"><rect width="46" height="44" rx="3" transform="translate(331 5014)" fill="#ceb8a3"/><path d="M26.392,9.335c.019.261.019.523.019.784,0,7.97-6.066,17.153-17.153,17.153A17.037,17.037,0,0,1,0,24.566a12.472,12.472,0,0,0,1.456.075,12.074,12.074,0,0,0,7.485-2.576A6.039,6.039,0,0,1,3.3,17.884a7.6,7.6,0,0,0,1.139.093,6.376,6.376,0,0,0,1.587-.205,6.03,6.03,0,0,1-4.834-5.917V11.78a6.072,6.072,0,0,0,2.725.765A6.038,6.038,0,0,1,2.053,4.482a17.137,17.137,0,0,0,12.431,6.309,6.806,6.806,0,0,1-.149-1.381A6.035,6.035,0,0,1,24.769,5.285a11.87,11.87,0,0,0,3.826-1.456,6.013,6.013,0,0,1-2.65,3.322,12.086,12.086,0,0,0,3.472-.933,12.96,12.96,0,0,1-3.024,3.117Z" transform="translate(339.292 5020.673)" fill="#fff"/></g></svg>