<svg xmlns="http://www.w3.org/2000/svg" width="46" height="44" viewBox="0 0 46 44">
  <g id="Group_49" data-name="Group 49" transform="translate(-545 -6144)">
    <rect id="Rectangle_122" data-name="Rectangle 122" width="46" height="44" rx="3" transform="translate(545 6144)" fill="#ceb8a3"/>
    <path id="Icon_ionic-logo-whatsapp" data-name="Icon ionic-logo-whatsapp" d="M16.349,2.25a13.544,13.544,0,0,0-13.6,13.491A13.352,13.352,0,0,0,4.7,22.708L2.25,29.946l7.528-2.391A13.619,13.619,0,0,0,29.946,15.741,13.544,13.544,0,0,0,16.349,2.25ZM23.11,20.865a3.512,3.512,0,0,1-2.4,1.55c-.638.034-.656.494-4.132-1.016s-5.567-5.183-5.732-5.42a6.668,6.668,0,0,1-1.283-3.614,3.853,3.853,0,0,1,1.323-2.827,1.332,1.332,0,0,1,.942-.4c.274,0,.451-.008.654,0s.506-.042.77.658.893,2.42.973,2.6a.63.63,0,0,1,.006.6,2.361,2.361,0,0,1-.369.562c-.181.195-.382.435-.544.584-.181.165-.369.344-.179.7A10.4,10.4,0,0,0,14.976,17.3,9.486,9.486,0,0,0,17.7,19.11c.341.186.544.165.756-.057s.9-.973,1.15-1.309.474-.27.788-.144,1.988,1.024,2.329,1.209.568.28.65.427A2.855,2.855,0,0,1,23.11,20.865Z" transform="translate(551.902 6149.902)" fill="#fff"/>
  </g>
</svg>
