<svg xmlns="http://www.w3.org/2000/svg" width="959.586" height="501" viewBox="0 0 959.586 501"><g transform="translate(0 -119)"><rect width="16" height="501" transform="translate(782 119)" fill="#d992fa"/><rect width="16" height="501" transform="translate(164 119)" fill="#d992fa"/><rect width="16" height="255" transform="translate(268 119)" fill="#fcdfa7"/><rect width="16" height="255" transform="translate(668 365)" fill="#aff3fc"/><rect width="16" height="272.586" transform="translate(272.586 357.5) rotate(90)" fill="#fcdfa7"/><rect width="16" height="291.586" transform="translate(959.586 365) rotate(90)" fill="#aff3fc"/><g transform="translate(-14.01 113.563)"><path d="M182.045,107.076a9.708,9.708,0,1,0-9.68,9.68,9.707,9.707,0,0,0,9.68-9.68Z" transform="translate(386.868 23.691)" fill="#606060"/><g transform="translate(204.287 48)"><path d="M69.41,197.638h5.611a4.854,4.854,0,0,1,5.611,4.8h0c0,3.226-2.609,4.91-5.78,4.91H72.047v4.629H69.494Zm5.611,7.491c1.936,0,3.114-1.066,3.114-2.581h0c0-1.711-1.206-2.581-3.114-2.581H72.216v5.191Z" transform="translate(14.258 156.69)" fill="#606060"/><path d="M83.128,197.6h2.5v5.976H92.5V197.6h2.525v14.393H92.5v-6.06H85.625v6.06H83.1Z" transform="translate(38.977 156.728)" fill="#606060"/><path d="M97.25,204.741h0a7.547,7.547,0,0,1,15.066,0h0a7.547,7.547,0,0,1-15.066,0Zm12.429,0h0a4.938,4.938,0,0,0-4.91-5.106,4.854,4.854,0,0,0-4.854,5.078h0a4.938,4.938,0,0,0,4.882,5.134,4.882,4.882,0,0,0,4.882-5.106Z" transform="translate(64.527 156.825)" fill="#606060"/><path d="M116.415,199.929H111.87V197.6h11.587v2.329h-4.489v12.064h-2.553Z" transform="translate(90.926 156.728)" fill="#606060"/><path d="M125.28,205.019h0a7.519,7.519,0,1,1,15.038,0h0a7.519,7.519,0,0,1-15.038,0Zm12.4,0h0a4.938,4.938,0,0,0-4.91-5.106,4.882,4.882,0,0,0-4.854,5.078h0a4.938,4.938,0,0,0,4.994,5.134,4.854,4.854,0,0,0,4.77-5.106Z" transform="translate(115.14 156.547)" fill="#606060"/><path d="M140.312,204.973h0a7.351,7.351,0,0,1,7.435-7.435,7.772,7.772,0,0,1,5.611,1.964l-1.6,1.908a5.611,5.611,0,0,0-4.04-1.543,4.854,4.854,0,0,0-4.657,5.078h0a4.8,4.8,0,0,0,4.8,5.134,6.032,6.032,0,0,0,3.479-1.094v-2.806h-3.675v-2.216h6.116v6.116a9.175,9.175,0,0,1-6,2.245,7.155,7.155,0,0,1-7.463-7.351Z" transform="translate(142.277 156.594)" fill="#606060"/><path d="M155.08,197.606H161.5a5.808,5.808,0,0,1,4.152,1.431,4.377,4.377,0,0,1,1.206,3.114h0a4.349,4.349,0,0,1-3.451,4.377l3.9,5.443h-2.974l-3.563-5.022h-3.114v5.022h-2.553Zm6.257,7.126c1.8,0,2.946-.954,2.946-2.413h0c0-1.543-1.094-2.385-2.974-2.385h-3.647v4.826Z" transform="translate(168.949 156.722)" fill="#606060"/><path d="M175.081,197.56h2.357l6.341,14.505h-2.806l-1.459-3.479h-6.677l-1.487,3.479H168.74Zm3.619,8.782-2.469-5.752-2.469,5.752Z" transform="translate(193.614 156.656)" fill="#606060"/><path d="M183.78,197.625h5.611a4.854,4.854,0,0,1,5.471,4.8h0c0,3.226-2.581,4.91-5.752,4.91h-2.806v4.629H183.78Zm5.471,7.491c1.908,0,3.086-1.066,3.086-2.581h0c0-1.711-1.206-2.581-3.086-2.581h-2.806v5.191Z" transform="translate(220.772 156.702)" fill="#606060"/><path d="M197.47,197.6H200v5.976h6.874V197.6h2.525v14.393h-2.525v-6.06H200v6.06H197.47Z" transform="translate(245.491 156.728)" fill="#606060"/><path d="M216.961,206.326,211.35,197.6h2.974l4.04,6.369,4.068-6.369h2.806l-5.611,8.641v5.611h-2.553Z" transform="translate(270.554 156.728)" fill="#606060"/><path d="M90.925,213.387h0a4.826,4.826,0,0,1,4.8-4.966,5.078,5.078,0,0,1,3.844,1.627l-.505.533a4.377,4.377,0,0,0-3.227-1.4,4.1,4.1,0,0,0-4.068,4.293h0a4.152,4.152,0,0,0,4.068,4.321,4.405,4.405,0,0,0,3.311-1.487l.477.449a5.022,5.022,0,0,1-3.816,1.683,4.77,4.77,0,0,1-4.882-5.05Z" transform="translate(53.092 176.264)" fill="#606060"/><path d="M99.835,208.44h.7L105,218.12h-.786l-1.206-2.806H97.394l-1.234,2.806H95.43Zm2.806,6.341-2.525-5.611-2.553,5.611Z" transform="translate(61.24 176.301)" fill="#606060"/><path d="M100.51,208.46h3.479c2.1,0,3.563,1.094,3.563,2.806h0c0,2.02-1.74,3.058-3.732,3.058h-2.609v3.591h-.7Zm3.339,5.387c1.8,0,3-.926,3-2.357h0c0-1.543-1.178-2.329-2.806-2.329h-2.806v4.714Z" transform="translate(70.414 176.337)" fill="#606060"/><path d="M107.849,209.133H104.51v-.673h7.407v.673H108.69v8.95h-.729Z" transform="translate(77.636 176.337)" fill="#606060"/><path d="M108.859,214.081V208.47h.7v5.611a3.142,3.142,0,0,0,3.283,3.563,3.058,3.058,0,0,0,3.2-3.479v-5.611h.7v5.611a3.956,3.956,0,1,1-7.884,0Z" transform="translate(85.464 176.355)" fill="#606060"/><path d="M113.6,208.464h3.928a3.928,3.928,0,0,1,2.806.954,2.553,2.553,0,0,1,.729,1.8h0c0,1.6-1.206,2.525-2.806,2.806l3.17,4.1h-.9l-3-4.012h-3.142v3.984h-.729Zm3.956,4.994c1.627,0,2.806-.814,2.806-2.188h0c0-1.291-1.01-2.1-2.806-2.1h-3.283v4.321Z" transform="translate(94.05 176.333)" fill="#606060"/><path d="M118.12,208.46h6.846v.673h-6.144v3.788h5.611v.645h-5.611v3.872h6.2v.645h-6.9Z" transform="translate(102.211 176.337)" fill="#606060"/><path d="M127.919,209.133H124.58v-.673h7.407v.673h-3.423v8.95h-.729Z" transform="translate(113.876 176.337)" fill="#606060"/><path d="M129,208.46h.7v4.461h6.144V208.46h.729v9.623h-.729v-4.517H129.7v4.517H129Z" transform="translate(121.857 176.337)" fill="#606060"/><path d="M133.67,208.46h6.846v.673H134.4v3.788h5.611v.645H134.4v3.872h6.2v.645h-6.93Z" transform="translate(130.289 176.337)" fill="#606060"/><path d="M140.38,208.46h.673l3.844,5.611,3.872-5.611h.673v9.623h-.729v-8.417l-3.788,5.611h0l-3.816-5.611v8.417h-.673Z" transform="translate(142.406 176.337)" fill="#606060"/><path d="M145.459,213.551h0a4.854,4.854,0,1,1,9.68,0h0a4.854,4.854,0,1,1-9.68,0Zm8.922,0h0a4.088,4.088,0,1,0-8.164-.028h0a4.152,4.152,0,0,0,4.1,4.321,4.1,4.1,0,0,0,4.068-4.293Z" transform="translate(151.551 176.1)" fill="#606060"/><path d="M150.74,208.46h.729l3.872,5.611,3.844-5.611h.7v9.623h-.7v-8.417l-3.816,5.611h0l-3.788-5.611v8.417h-.7Z" transform="translate(161.113 176.337)" fill="#606060"/><path d="M156,208.46h6.846v.673H156.73v3.788h5.611v.645H156.73v3.872H162.9v.645H156Z" transform="translate(170.61 176.337)" fill="#606060"/><path d="M160.23,208.46h.673l6.621,8.417V208.46h.7v9.623h-.533l-6.79-8.417v8.417h-.673Z" transform="translate(178.248 176.337)" fill="#606060"/><path d="M168.149,209.133H164.81v-.673h7.407v.673h-3.339v8.95h-.729Z" transform="translate(186.518 176.337)" fill="#606060"/><path d="M171.529,213.551h0a4.854,4.854,0,1,1,9.68,0h0a4.854,4.854,0,1,1-9.68,0Zm8.922,0h0a4.1,4.1,0,1,0-8.193-.028h0a4.18,4.18,0,0,0,4.124,4.321,4.124,4.124,0,0,0,4.068-4.293Z" transform="translate(198.625 176.1)" fill="#606060"/><path d="M176.81,208.46h6.762v.673h-6.06v3.928h5.443v.673h-5.443v4.349h-.7Z" transform="translate(208.186 176.337)" fill="#606060"/><path d="M183.12,216.428l.589-.365a2.553,2.553,0,0,0,2.357,1.515c1.178,0,2.076-.9,2.076-2.581V208.46h.729v6.481a3.563,3.563,0,0,1-.87,2.525,2.805,2.805,0,0,1-1.964.758A3.2,3.2,0,0,1,183.12,216.428Z" transform="translate(219.58 176.337)" fill="#606060"/><path d="M187.009,213.551h0a4.854,4.854,0,1,1,9.68,0h0a4.854,4.854,0,1,1-9.68,0Zm8.922,0h0a4.1,4.1,0,1,0-8.193-.028h0a4.181,4.181,0,0,0,4.124,4.321,4.124,4.124,0,0,0,3.956-4.293Z" transform="translate(226.577 176.1)" fill="#606060"/><path d="M195.724,214.268,191.6,208.46h.9l3.619,5.162,3.591-5.162h.87l-4.124,5.808v3.816h-.729Z" transform="translate(234.892 176.337)" fill="#606060"/><path d="M139.136,198.044a2.441,2.441,0,0,1,2.385,1.066,2.273,2.273,0,0,1,0,2.188,2.806,2.806,0,0,1-2.441,1.319q-15.88.758-31.648,2.806a6.341,6.341,0,0,0-4.77,3.2Q93.32,225.456,85.576,243.1a2.469,2.469,0,0,1-2.16,1.431,4.124,4.124,0,0,1-2.806-.645,1.711,1.711,0,0,1-.645-2.245q7.323-16.834,16.1-32.77a1.15,1.15,0,0,0,0-1.263,1.291,1.291,0,0,0-1.206-.533c-4.012.617-8.052,1.263-12.064,1.992a8.136,8.136,0,0,0-5.611,3.984A529.263,529.263,0,0,0,45.4,281.6a2.581,2.581,0,0,1-2.16,1.431,3.9,3.9,0,0,1-2.806-.645,1.852,1.852,0,0,1-.673-2.329,524.913,524.913,0,0,1,30.862-66.747,1.15,1.15,0,0,0,0-1.234,1.066,1.066,0,0,0-1.15-.421q-10.521,2.188-20.986,4.882a2.581,2.581,0,0,1-2.609-.561,2.273,2.273,0,0,1-.7-2.1q.224-1.178,2.02-1.768,11.98-3.058,24.073-5.611a8.136,8.136,0,0,0,5.415-3.844,532.033,532.033,0,0,1,35.211-53.532,2.806,2.806,0,0,1,2.5-.926,3.676,3.676,0,0,1,2.385,1.122,1.768,1.768,0,0,1,0,2.385,528.95,528.95,0,0,0-33.443,50.334,1.375,1.375,0,0,0,0,1.431,1.235,1.235,0,0,0,1.291.5c4.124-.7,8.193-1.319,12.261-1.88a6.453,6.453,0,0,0,4.629-3.058,386.909,386.909,0,0,1,26.149-39.28,2.805,2.805,0,0,1,2.469-1.01,3.9,3.9,0,0,1,2.413,1.122,1.824,1.824,0,0,1,0,2.385,405.647,405.647,0,0,0-24.493,36.474,1.319,1.319,0,0,0,0,1.291,1.122,1.122,0,0,0,1.15.505Q124.154,198.83,139.136,198.044Z" transform="translate(-39.589 67.456)" fill="#606060"/><path d="M107.984,184.157a2.806,2.806,0,0,1,2.1.814,1.824,1.824,0,0,1,.617,1.683c0,.617-.645.954-1.627,1.038l-6.229.449a114.266,114.266,0,0,1-22.109.2,10.689,10.689,0,0,1-5.976-2.245,45.687,45.687,0,0,1-5.275,3.086,12.823,12.823,0,0,1-5.247,1.459,3.283,3.283,0,0,1-3.339-2.245,4.489,4.489,0,0,1,1.263-4.4,18.824,18.824,0,0,1,3.76-3.17,20.342,20.342,0,0,1,12.008-3.086,2.132,2.132,0,0,1,1.655.729,1.711,1.711,0,0,1,.365,1.4,1.8,1.8,0,0,1-.926,1.206,1.487,1.487,0,0,1,0,1.88c-.281.505.14.9,1.291,1.178a25.874,25.874,0,0,0,4.377.589h7.379A143.781,143.781,0,0,0,107.984,184.157ZM69.069,183.6a10.479,10.479,0,0,0-1.038.673,7.485,7.485,0,0,0-.926.758c-.224.253-.281.393-.168.477s.561,0,1.291-.2a19.891,19.891,0,0,0,5.976-3.7,12.485,12.485,0,0,0-5.134,2.1Z" transform="translate(-1.366 120.791)" fill="#606060"/><path d="M129.275,182.428a2.806,2.806,0,0,1,2.1.786,1.88,1.88,0,0,1,.617,1.712q-.168.87-1.683,1.01c-2.806.2-5.611.337-8.221.477q-9.511.393-18.966,1.206a40.316,40.316,0,0,0-12.457,2.806c-1.15,1.627-2.273,3.311-3.395,5.078A48.4,48.4,0,0,1,79.5,205.771a2.3,2.3,0,0,1-2.16.365,2.273,2.273,0,0,1-1.683-1.4,9.651,9.651,0,0,1,1.768-9.062,26.823,26.823,0,0,1,8.024-6.9,5.415,5.415,0,0,1-4.237-1.206,4.826,4.826,0,0,1-.842-5.611,6.4,6.4,0,0,1,4.433-3.732,2.356,2.356,0,0,1,2.132.561,1.8,1.8,0,0,1,.561,1.712q-.168.926-1.6,1.262a2.525,2.525,0,0,0-1.206,2.637,3.2,3.2,0,0,0,2.637,0,21.462,21.462,0,0,0,6.537-3.2l.337-.2a2.968,2.968,0,0,1,3.844,1.01c.309.561,0,1.15-.7,1.74a13.132,13.132,0,0,0-1.74,1.347,121.626,121.626,0,0,1,24.017-2.245C122.962,182.709,126.161,182.6,129.275,182.428Z" transform="translate(24.731 121.622)" fill="#606060"/><path d="M140.894,184.156a2.806,2.806,0,0,1,2.132.814,1.88,1.88,0,0,1,.589,1.683c0,.617-.645.954-1.627,1.038l-6.229.449a113.962,113.962,0,0,1-22.081.2,10.689,10.689,0,0,1-5.976-2.244,43.828,43.828,0,0,1-5.3,3.086,12.71,12.71,0,0,1-5.247,1.459,3.283,3.283,0,0,1-3.339-2.245,4.489,4.489,0,0,1,1.263-4.4,19.638,19.638,0,0,1,3.76-3.17,20.4,20.4,0,0,1,12.008-3.086,2.245,2.245,0,0,1,1.683.729,1.6,1.6,0,0,1,.337,1.4,1.8,1.8,0,0,1-.926,1.206,1.515,1.515,0,0,1,0,1.88q-.449.758,1.262,1.178a26.282,26.282,0,0,0,4.377.589h7.379A144.05,144.05,0,0,0,140.894,184.156Zm-38.915-.561a7.851,7.851,0,0,0-1.01.673,11.233,11.233,0,0,0-.954.758c-.224.253-.281.393-.14.477s.533,0,1.263-.2a19.892,19.892,0,0,0,5.976-3.7,12.485,12.485,0,0,0-5.134,2.1Z" transform="translate(58.059 120.792)" fill="#606060"/><path d="M215.782,168.17a3.7,3.7,0,0,1,1.8.449,1.88,1.88,0,0,1,1.094,1.178q.252.758-.758,1.6a64.531,64.531,0,0,1-19.359,8.866c-1.6.5-3.17,1.038-4.685,1.6l-5.331,1.88-10.605,3.591a97.281,97.281,0,0,1,12.12.729,40.542,40.542,0,0,1,18.686,5.78c3.731,2.806,5.078,5.611,4.1,8.164a14.954,14.954,0,0,1-6.229,7.126,42.083,42.083,0,0,1-8.95,4.545,148.922,148.922,0,0,1-43.011,8.417,70.785,70.785,0,0,1-20.2-1.571,33.464,33.464,0,0,1-6.593-2.076,9.118,9.118,0,0,1-4.938-4.573,6,6,0,0,1,1.15-6.032,25.754,25.754,0,0,1,4.91-4.545l.561-.477a63.887,63.887,0,0,1,16.834-9.483,2.525,2.525,0,0,1,2.245.224,2.244,2.244,0,0,1,1.178,1.543c0,.645-.309,1.15-1.235,1.515a60.207,60.207,0,0,0-15.852,8.978h0a25.756,25.756,0,0,0-3.086,2.665,6.762,6.762,0,0,0-1.936,3.255,3.255,3.255,0,0,0,1.683,3.2,15.32,15.32,0,0,0,4.377,1.824,46.741,46.741,0,0,0,4.685.982h.617a105.044,105.044,0,0,0,38.438-2.3,125.024,125.024,0,0,0,18.854-5.191,37.953,37.953,0,0,0,7.07-3.563,10.044,10.044,0,0,0,4.657-5.331c.589-1.964-.842-3.928-4.293-5.948a45.65,45.65,0,0,0-17.479-3.956,97.072,97.072,0,0,0-21.351.561,2.806,2.806,0,0,1-1.571-.365q-4.124,5.05-8.165,10.1c-.982,1.178-1.964,2.385-2.806,3.591a2.329,2.329,0,0,1-2.076.757,2.806,2.806,0,0,1-1.964-.9,1.459,1.459,0,0,1,0-1.936q7.463-9.2,14.954-18.377a.785.785,0,0,0,.14-.645.813.813,0,0,0-.365-.533.645.645,0,0,0-.645,0A200.359,200.359,0,0,0,124.009,202.6a2.638,2.638,0,0,1-2.245.253,2.806,2.806,0,0,1-1.655-1.291c-.281-.589,0-1.15.729-1.711a204.112,204.112,0,0,1,48.566-22.81l.421-.477q1.627-1.8,3.283-3.7a1.992,1.992,0,0,1,1.739-1.487,3.114,3.114,0,0,1,2.3.533,1.347,1.347,0,0,1,.561,1.8h0a.7.7,0,0,0,0,.2.169.169,0,0,0,0,.168.393.393,0,0,0,0,.2.421.421,0,0,0,.224,0h1.038A202.6,202.6,0,0,1,215.782,168.17Zm-25.84,11,5.387-1.8a111.242,111.242,0,0,0,12.6-4.685,196.4,196.4,0,0,0-35.379,7.519l-3.367,4.209c-.814.926-1.6,1.908-2.357,2.806l9.062-3.17Z" transform="translate(105.61 103.587)" fill="#606060"/><path d="M186.194,185.861a1.6,1.6,0,0,1,1.543.673,1.319,1.319,0,0,1,0,1.4,1.88,1.88,0,0,1-1.6.842q-8.417.421-16.666.421a13.677,13.677,0,0,0-1.515,0,39.111,39.111,0,0,1-6.734-.421,3.828,3.828,0,0,1-.561.309,11.9,11.9,0,0,1-3.535,1.234,3.872,3.872,0,0,1-3.507-.926,2.806,2.806,0,0,1-.421-2.806,11.788,11.788,0,0,1,1.263-2.806,1.571,1.571,0,0,0,.252-.477,2.245,2.245,0,0,1,.645-.617,6.369,6.369,0,0,1,5.415-3.227,6,6,0,0,1,3.395.617,3.086,3.086,0,0,1,1.711,2.806,4.742,4.742,0,0,1-1.375,3.283h3.114Q176.936,186.338,186.194,185.861ZM160.27,184.6q-1.207.337-1.01.589a1.964,1.964,0,0,0,1.066.477,3.564,3.564,0,0,0,1.094-.982C161.42,184.458,161.14,184.43,160.27,184.6Z" transform="translate(165.19 123.913)" fill="#606060"/><path d="M181.331,181.825a1.74,1.74,0,0,1,.7.87,1.206,1.206,0,0,1-.337,1.15c-1.178,1.431-2.385,2.806-3.647,4.265s-2.609,3-3.9,4.545a7.828,7.828,0,0,1,5.611,5.471,6.65,6.65,0,0,1-2.806,6.229,15.319,15.319,0,0,1-6.537,2.974,6.874,6.874,0,0,1-5.3-.926,4.321,4.321,0,0,1-1.347-4.91,20.23,20.23,0,0,1,4.265-7.07c-.954,0-1.852-.253-2.806-.309h-1.01a2.048,2.048,0,0,1-1.627-1.01,1.4,1.4,0,0,1,0-1.543,1.655,1.655,0,0,1,1.711-.617,1.094,1.094,0,0,1,.421,0,43.557,43.557,0,0,1,5.471.729l1.4-1.739a7.374,7.374,0,0,1-1.094.168,3.817,3.817,0,0,1-1.234,0,1.655,1.655,0,0,1-1.01-.729,4.826,4.826,0,0,1,1.038-5.415,13.074,13.074,0,0,1,5.611-3.984,5.611,5.611,0,0,1,5.611.645A1.683,1.683,0,0,1,181.331,181.825Zm-8.95,13.86a.422.422,0,0,0-.252,0h-.281q-1.15,1.515-2.188,3.03a.727.727,0,0,1,0,.2c-.252.309-.589.786-.982,1.375a12.989,12.989,0,0,0-.982,1.824c-.253.617-.309,1.066,0,1.347a2.581,2.581,0,0,0,2.441.645,9.763,9.763,0,0,0,3.226-1.094,4.181,4.181,0,0,0,1.908-1.852,3.956,3.956,0,0,0,0-3.479A4.938,4.938,0,0,0,172.381,195.685Zm5.247-13.13a3.787,3.787,0,0,0-1.487.533,14.026,14.026,0,0,0-2.048,1.4,12.286,12.286,0,0,0-1.711,1.711,26.486,26.486,0,0,0,5.106-3.563Z" transform="translate(182.09 124.049)" fill="#606060"/><path d="M207.368,184.725a2.357,2.357,0,0,1,1.711.645,1.543,1.543,0,0,1,.477,1.375c0,.5-.505.757-1.319.842l-5.05.365a95.782,95.782,0,0,1-17.928.168,8.865,8.865,0,0,1-4.826-1.824,39.282,39.282,0,0,1-4.293,2.5,10.325,10.325,0,0,1-4.265,1.178,2.609,2.609,0,0,1-2.806-1.824,3.591,3.591,0,0,1,1.01-3.563A16.438,16.438,0,0,1,173.139,182a16.61,16.61,0,0,1,9.736-2.5,1.8,1.8,0,0,1,1.347.589,1.291,1.291,0,0,1,.281,1.122,1.515,1.515,0,0,1-.757,1.01,1.15,1.15,0,0,1,0,1.515c-.224.393,0,.729,1.066.954a20.369,20.369,0,0,0,3.535.477h6C198.727,185.2,203.048,185.006,207.368,184.725Zm-31.564-.477-.842.561a6.471,6.471,0,0,0-.758.617c-.2.2-.224.309,0,.393a1.88,1.88,0,0,0,1.038-.168,15.628,15.628,0,0,0,4.854-3,9.848,9.848,0,0,0-4.293,1.6Z" transform="translate(193.985 124.01)" fill="#606060"/><path d="M235.449,186.014a1.334,1.334,0,0,1,1.206,2.216,1.964,1.964,0,0,1-1.711.7H209.216a9.931,9.931,0,0,0-1.263,0,33.346,33.346,0,0,1-3.339,0,5.246,5.246,0,0,1-2.806-1.01,2.806,2.806,0,0,1-1.038-1.319v-.814a39.943,39.943,0,0,0-3.479,2.5l-2.469,1.768a2.217,2.217,0,0,1-1.459.337,1.852,1.852,0,0,1-1.263-.589,1.206,1.206,0,0,1-.14-1.319c.533-1.206,1.094-2.385,1.74-3.535a68.8,68.8,0,0,0-6.481,3.535l-2.806,1.655a2.609,2.609,0,0,1-1.459.337,1.992,1.992,0,0,1-1.234-.533,1.15,1.15,0,0,1,0-1.347,85.819,85.819,0,0,1,3.844-7.912,1.936,1.936,0,0,1,1.515-.982,2.413,2.413,0,0,1,1.683.421,1.122,1.122,0,0,1,.252,1.487c-.617,1.15-1.206,2.3-1.768,3.479a33.277,33.277,0,0,1,10.044-4.377,2.806,2.806,0,0,1,1.094.168,1.684,1.684,0,0,1,.926.673.9.9,0,0,1,0,1.094,7.05,7.05,0,0,1-.421.673l-.224.281a21.49,21.49,0,0,1,3.647-1.88,2.526,2.526,0,0,1,1.206-.14,1.74,1.74,0,0,1,1.038.505,1.571,1.571,0,0,1,.477.814,2.021,2.021,0,0,1,0,.7,2.181,2.181,0,0,0,0,.449,1.655,1.655,0,0,0,0,.589,3.226,3.226,0,0,0,2.806,1.515,23.952,23.952,0,0,0,4.489,0h1.908Z" transform="translate(216.659 124.377)" fill="#606060"/><path d="M253.568,186.014a1.319,1.319,0,0,1,1.178,2.216,1.936,1.936,0,0,1-1.712.7H227.307a9.756,9.756,0,0,0-1.235,0h-3.367a5.135,5.135,0,0,1-2.806-1.01,2.441,2.441,0,0,1-1.038-1.319v-.814a36.483,36.483,0,0,0-3.507,2.5l-2.441,1.768a2.3,2.3,0,0,1-1.487.337,1.908,1.908,0,0,1-1.263-.589,1.207,1.207,0,0,1,0-1.319c.505-1.206,1.094-2.385,1.712-3.535a68.351,68.351,0,0,0-6.453,3.535l-2.806,1.655a2.806,2.806,0,0,1-1.459.337,2.02,2.02,0,0,1-1.263-.533,1.178,1.178,0,0,1,0-1.347,79.393,79.393,0,0,1,3.872-7.912,1.852,1.852,0,0,1,1.515-.982,2.357,2.357,0,0,1,1.655.421,1.122,1.122,0,0,1,.253,1.487c-.617,1.15-1.206,2.3-1.768,3.479a33.668,33.668,0,0,1,10.044-4.377,2.61,2.61,0,0,1,1.094.168,1.852,1.852,0,0,1,.954.673.954.954,0,0,1,0,1.094,7.084,7.084,0,0,1-.421.673,2.406,2.406,0,0,1-.2.281,19.649,19.649,0,0,1,3.647-1.88,2.413,2.413,0,0,1,1.178-.14,1.823,1.823,0,0,1,1.066.5,1.712,1.712,0,0,1,.449.814,1.234,1.234,0,0,1,0,.7,2.273,2.273,0,0,0,0,.449,2.472,2.472,0,0,0,0,.589,3.226,3.226,0,0,0,2.806,1.515,24.038,24.038,0,0,0,4.489,0h1.936Z" transform="translate(249.49 124.377)" fill="#606060"/><path d="M256.366,184.725a2.3,2.3,0,0,1,1.711.645,1.571,1.571,0,0,1,.505,1.375c0,.5-.533.757-1.319.842l-5.078.365a95.391,95.391,0,0,1-17.9.168,8.978,8.978,0,0,1-4.854-1.824,39.273,39.273,0,0,1-4.293,2.5,10.214,10.214,0,0,1-4.237,1.178,2.637,2.637,0,0,1-2.806-1.824,3.647,3.647,0,0,1,1.01-3.563A16.443,16.443,0,0,1,222.165,182a16.61,16.61,0,0,1,9.736-2.5,1.739,1.739,0,0,1,1.347.589,1.291,1.291,0,0,1,.309,1.122,1.515,1.515,0,0,1-.758,1.01,1.179,1.179,0,0,1,0,1.515c-.252.393,0,.729,1.038.954a20.769,20.769,0,0,0,3.535.477h5.92C247.725,185.2,252.045,185.006,256.366,184.725Zm-31.564-.477a8.742,8.742,0,0,0-.842.561,6.469,6.469,0,0,0-.758.617c-.168.2-.224.309,0,.393a1.88,1.88,0,0,0,1.038-.168,15.964,15.964,0,0,0,4.854-3A9.96,9.96,0,0,0,224.8,184.248Z" transform="translate(282.521 124.01)" fill="#606060"/><path d="M273.981,186.115a1.6,1.6,0,0,1,1.515.842,1.4,1.4,0,0,1,0,1.4,1.908,1.908,0,0,1-1.627.729c-6.537-.2-13.074-.252-19.64-.224H243.4a35.239,35.239,0,0,0-3.844.168,27.269,27.269,0,0,1-5.892,5.443,2.8,2.8,0,0,1-1.6.365,1.964,1.964,0,0,1-1.375-.757c-1.347-2.441-1.263-4.237.281-5.415a11.419,11.419,0,0,1,5.611-2.245,22.444,22.444,0,0,0,1.4-2.413c-.87-2.132-1.852-2.581-2.806-1.291a1.908,1.908,0,0,1-1.768.28,2.16,2.16,0,0,1-1.319-1.01c-.224-.477,0-.982.533-1.459a10.465,10.465,0,0,1,5.078-2.16,3.872,3.872,0,0,1,4.349,2.525,6.229,6.229,0,0,1-.617,5.106Q257.68,185.694,273.981,186.115Z" transform="translate(303.764 121.892)" fill="#606060"/><path d="M255.458,108.972h-94.8V78.11H146.345v30.862H123.9v14.337h22.445v52.522h14.309V123.309H255.43a10.633,10.633,0,0,1,10.662,10.605V239.043a10.633,10.633,0,0,1-10.633,10.633h-5.92a77.043,77.043,0,0,1-7.828,14.337h13.748a25,25,0,0,0,24.97-24.97V133.915a25,25,0,0,0-24.97-24.942Z" transform="translate(112.648 -59.031)" fill="#606060"/><path d="M209.417,158.791v14.337a58.723,58.723,0,1,1-58.723,58.723V71.31H136.357v49.941h-5.471A25,25,0,0,0,106,146.193V251.322a25,25,0,0,0,24.97,24.97h20.453a72.947,72.947,0,1,0,57.909-117.529ZM131.055,261.983a10.634,10.634,0,0,1-10.634-10.633V146.193a10.662,10.662,0,0,1,10.521-10.633h5.415v96.262A72.658,72.658,0,0,0,142.9,261.97Z" transform="translate(80.327 -71.31)" fill="#606060"/></g></g></g></svg>