<svg xmlns="http://www.w3.org/2000/svg" width="620.848" height="192.065" viewBox="0 0 620.848 192.065"><g transform="translate(10194.723 -1103.18)"><path d="M69.41,197.643h6.012a5.2,5.2,0,0,1,6.012,5.141h0c0,3.457-2.8,5.261-6.193,5.261H72.236V213H69.5Zm6.012,8.026c2.074,0,3.337-1.142,3.337-2.766h0c0-1.834-1.293-2.766-3.337-2.766H72.416V205.7Z" transform="translate(-10174.488 1054.159)" fill="#fff"/><path d="M83.13,197.6h2.675V204h7.365v-6.4h2.706v15.421H93.171v-6.493H85.806v6.493H83.1Z" transform="translate(-10147.023 1054.202)" fill="#fff"/><path d="M97.25,205.248h0a8.087,8.087,0,0,1,16.143,0h0a8.086,8.086,0,0,1-16.143,0Zm13.317,0h0a5.291,5.291,0,0,0-5.261-5.471,5.2,5.2,0,0,0-5.2,5.441h0a5.291,5.291,0,0,0,5.231,5.5,5.231,5.231,0,0,0,5.231-5.471Z" transform="translate(-10118.638 1054.31)" fill="#fff"/><path d="M116.74,200.1h-4.87v-2.5h12.415v2.5h-4.81v12.926H116.74Z" transform="translate(-10089.309 1054.202)" fill="#fff"/><path d="M125.28,205.556h0a8.056,8.056,0,1,1,16.113,0h0a8.056,8.056,0,0,1-16.113,0Zm13.287,0h0a5.291,5.291,0,0,0-5.261-5.471,5.231,5.231,0,0,0-5.2,5.441h0a5.291,5.291,0,0,0,5.351,5.5,5.2,5.2,0,0,0,5.11-5.471Z" transform="translate(-10062.405 1054.001)" fill="#fff"/><path d="M140.312,205.5h0a7.876,7.876,0,0,1,7.966-7.966,8.327,8.327,0,0,1,6.012,2.1l-1.714,2.044a6.012,6.012,0,0,0-4.329-1.653,5.2,5.2,0,0,0-4.99,5.441h0a5.14,5.14,0,0,0,5.141,5.5,6.463,6.463,0,0,0,3.728-1.172V206.8h-3.938v-2.375h6.553v6.553a9.83,9.83,0,0,1-6.433,2.4,7.666,7.666,0,0,1-8-7.876Z" transform="translate(-10032.256 1054.053)" fill="#fff"/><path d="M155.08,197.606h6.884a6.223,6.223,0,0,1,4.449,1.533,4.69,4.69,0,0,1,1.293,3.337h0a4.659,4.659,0,0,1-3.7,4.69L168.187,213H165l-3.818-5.381h-3.337V213H155.11Zm6.7,7.636c1.924,0,3.156-1.022,3.156-2.585h0c0-1.653-1.172-2.555-3.186-2.555h-3.908v5.17Z" transform="translate(-10002.624 1054.195)" fill="#fff"/><path d="M175.534,197.56h2.525l6.794,15.542h-3.006l-1.563-3.728h-7.155l-1.593,3.728h-2.8Zm3.878,9.409-2.645-6.163-2.645,6.163Z" transform="translate(-9975.22 1054.121)" fill="#fff"/><path d="M183.78,197.628h6.012a5.2,5.2,0,0,1,5.862,5.141h0c0,3.457-2.766,5.261-6.163,5.261h-3.006v4.96H183.78Zm5.862,8.026c2.044,0,3.307-1.142,3.307-2.766h0c0-1.834-1.293-2.766-3.307-2.766h-3.006v5.561Z" transform="translate(-9945.048 1054.173)" fill="#fff"/><path d="M197.47,197.6h2.706V204h7.365v-6.4h2.706v15.421H207.54v-6.493h-7.365v6.493H197.47Z" transform="translate(-9917.583 1054.202)" fill="#fff"/><path d="M217.362,206.949,211.35,197.6h3.186l4.329,6.824,4.359-6.824h3.006l-6.012,9.259v6.012h-2.736Z" transform="translate(-9889.738 1054.202)" fill="#fff"/><path d="M90.926,213.742h0a5.17,5.17,0,0,1,5.14-5.321,5.441,5.441,0,0,1,4.118,1.744l-.541.571a4.69,4.69,0,0,0-3.457-1.5,4.389,4.389,0,0,0-4.359,4.6h0a4.449,4.449,0,0,0,4.359,4.63,4.72,4.72,0,0,0,3.547-1.593l.511.481a5.381,5.381,0,0,1-4.088,1.8,5.11,5.11,0,0,1-5.231-5.411Z" transform="translate(-10131.343 1075.907)" fill="#fff"/><path d="M100.15,208.44h.752l4.78,10.371h-.842l-1.293-3.006H97.534l-1.323,3.006H95.43Zm3.006,6.794-2.706-6.012-2.736,6.012Z" transform="translate(-10122.289 1075.948)" fill="#fff"/><path d="M100.51,208.46h3.728c2.255,0,3.818,1.172,3.818,3.006h0c0,2.164-1.864,3.277-4,3.277h-2.8v3.848h-.752Zm3.577,5.772c1.924,0,3.217-.992,3.217-2.525h0c0-1.653-1.263-2.5-3.006-2.5h-3.006v5.05Z" transform="translate(-10112.099 1075.988)" fill="#fff"/><path d="M108.087,209.181H104.51v-.721h7.936v.721h-3.457v9.59h-.782Z" transform="translate(-10104.072 1075.988)" fill="#fff"/><path d="M108.86,214.482V208.47h.752v6.012a3.367,3.367,0,0,0,3.517,3.818,3.277,3.277,0,0,0,3.427-3.728V208.56h.752v6.012a4.239,4.239,0,1,1-8.447,0Z" transform="translate(-10095.377 1076.008)" fill="#fff"/><path d="M113.6,208.465h4.209a4.209,4.209,0,0,1,3.006,1.022,2.736,2.736,0,0,1,.782,1.924h0c0,1.714-1.293,2.706-3.006,3.006l3.4,4.389h-.962l-3.217-4.3h-3.367v4.269h-.782Zm4.239,5.351c1.744,0,3.006-.872,3.006-2.345h0c0-1.383-1.082-2.255-3.006-2.255h-3.517v4.629Z" transform="translate(-10085.838 1075.983)" fill="#fff"/><path d="M118.12,208.46h7.335v.721h-6.583v4.058h6.012v.691h-6.012v4.148h6.644v.691h-7.4Z" transform="translate(-10076.771 1075.988)" fill="#fff"/><path d="M128.157,209.181H124.58v-.721h7.936v.721h-3.667v9.59h-.782Z" transform="translate(-10063.811 1075.988)" fill="#fff"/><path d="M129,208.46h.751v4.78h6.583v-4.78h.782v10.311h-.782v-4.84h-6.583v4.84H129Z" transform="translate(-10054.942 1075.988)" fill="#fff"/><path d="M133.67,208.46H141v.721h-6.553v4.058h6.012v.691h-6.012v4.148H141.1v.691H133.67Z" transform="translate(-10045.575 1075.988)" fill="#fff"/><path d="M140.38,208.46h.721l4.118,6.012,4.148-6.012h.721v10.311h-.782v-9.018l-4.058,6.012h0l-4.088-6.012v9.018h-.721Z" transform="translate(-10032.112 1075.988)" fill="#fff"/><path d="M145.46,213.924h0a5.2,5.2,0,1,1,10.371,0h0a5.2,5.2,0,1,1-10.371,0Zm9.559,0h0a4.38,4.38,0,1,0-8.748-.03h0a4.449,4.449,0,0,0,4.389,4.629,4.389,4.389,0,0,0,4.359-4.6Z" transform="translate(-10021.952 1075.725)" fill="#fff"/><path d="M150.74,208.46h.782l4.148,6.012,4.118-6.012h.752v10.311h-.752v-9.018l-4.088,6.012h0l-4.058-6.012v9.018h-.752Z" transform="translate(-10011.33 1075.988)" fill="#fff"/><path d="M156,208.46h7.335v.721h-6.553v4.058h6.012v.691h-6.012v4.148H163.4v.691H156Z" transform="translate(-10000.777 1075.988)" fill="#fff"/><path d="M160.23,208.46h.722l7.094,9.018V208.46h.752v10.311h-.571l-7.275-9.018v9.018h-.722Z" transform="translate(-9992.292 1075.988)" fill="#fff"/><path d="M168.387,209.181H164.81v-.721h7.936v.721h-3.577v9.59h-.782Z" transform="translate(-9983.104 1075.988)" fill="#fff"/><path d="M171.53,213.924h0a5.2,5.2,0,1,1,10.371,0h0a5.2,5.2,0,1,1-10.371,0Zm9.559,0h0a4.394,4.394,0,1,0-8.778-.03h0a4.479,4.479,0,0,0,4.419,4.629,4.419,4.419,0,0,0,4.359-4.6Z" transform="translate(-9969.652 1075.724)" fill="#fff"/><path d="M176.81,208.46h7.245v.721h-6.493v4.209h5.832v.721h-5.832v4.66h-.752Z" transform="translate(-9959.029 1075.988)" fill="#fff"/><path d="M183.12,217l.631-.391a2.735,2.735,0,0,0,2.525,1.623c1.263,0,2.225-.962,2.225-2.766v-7h.782V215.4a3.818,3.818,0,0,1-.932,2.705,3.006,3.006,0,0,1-2.1.812A3.427,3.427,0,0,1,183.12,217Z" transform="translate(-9946.371 1075.988)" fill="#fff"/><path d="M187.01,213.924h0a5.2,5.2,0,1,1,10.371,0h0a5.2,5.2,0,1,1-10.371,0Zm9.559,0h0a4.394,4.394,0,1,0-8.778-.03h0a4.479,4.479,0,0,0,4.419,4.629,4.419,4.419,0,0,0,4.239-4.6Z" transform="translate(-9938.598 1075.724)" fill="#fff"/><path d="M196.019,214.683,191.6,208.46h.962l3.878,5.531,3.848-5.531h.932l-4.419,6.223v4.088h-.782Z" transform="translate(-9929.359 1075.988)" fill="#fff"/><path d="M146.249,201.608a2.615,2.615,0,0,1,2.555,1.142,2.435,2.435,0,0,1,0,2.345,3.006,3.006,0,0,1-2.615,1.413q-17.015.812-33.909,3.006a6.794,6.794,0,0,0-5.11,3.427q-10.01,18.037-18.307,36.945a2.645,2.645,0,0,1-2.315,1.533,4.419,4.419,0,0,1-3.006-.691,1.834,1.834,0,0,1-.691-2.4Q90.7,230.287,100.1,213.212a1.233,1.233,0,0,0,0-1.353,1.383,1.383,0,0,0-1.293-.571c-4.3.661-8.628,1.353-12.926,2.134a8.718,8.718,0,0,0-6.012,4.269,567.079,567.079,0,0,0-34.059,73.44,2.766,2.766,0,0,1-2.315,1.533,4.179,4.179,0,0,1-3.006-.691,1.984,1.984,0,0,1-.721-2.5,562.419,562.419,0,0,1,33.067-71.516,1.233,1.233,0,0,0,0-1.323,1.142,1.142,0,0,0-1.233-.451q-11.273,2.345-22.486,5.231a2.765,2.765,0,0,1-2.8-.6,2.435,2.435,0,0,1-.752-2.255q.241-1.263,2.164-1.894,12.836-3.277,25.793-6.012a8.718,8.718,0,0,0,5.8-4.118,570.047,570.047,0,0,1,37.727-57.357,3.006,3.006,0,0,1,2.675-.992,3.938,3.938,0,0,1,2.555,1.2,1.894,1.894,0,0,1,0,2.555,566.742,566.742,0,0,0-35.833,53.93,1.473,1.473,0,0,0,0,1.533,1.323,1.323,0,0,0,1.383.541c4.419-.752,8.778-1.413,13.137-2.014a6.914,6.914,0,0,0,4.96-3.277,414.553,414.553,0,0,1,28.017-42.086,3.006,3.006,0,0,1,2.645-1.082,4.178,4.178,0,0,1,2.585,1.2,1.954,1.954,0,0,1,0,2.555,434.629,434.629,0,0,0-26.243,39.08,1.413,1.413,0,0,0,0,1.383,1.2,1.2,0,0,0,1.232.541Q130.2,202.45,146.249,201.608Z" transform="translate(-10234.313 955.019)" fill="#fff"/><path d="M111.358,184.619a3.006,3.006,0,0,1,2.255.872,1.954,1.954,0,0,1,.661,1.8c0,.661-.691,1.022-1.744,1.112l-6.674.481a122.43,122.43,0,0,1-23.688.21,11.453,11.453,0,0,1-6.4-2.4A48.95,48.95,0,0,1,70.114,190a13.739,13.739,0,0,1-5.621,1.563,3.517,3.517,0,0,1-3.577-2.4,4.81,4.81,0,0,1,1.353-4.72,20.169,20.169,0,0,1,4.028-3.4,21.8,21.8,0,0,1,12.866-3.307,2.285,2.285,0,0,1,1.774.782,1.834,1.834,0,0,1,.391,1.5,1.924,1.924,0,0,1-.992,1.293,1.593,1.593,0,0,1,0,2.014c-.3.541.15.962,1.383,1.263a27.721,27.721,0,0,0,4.69.631h7.906A154.054,154.054,0,0,0,111.358,184.619Zm-41.695-.6a11.226,11.226,0,0,0-1.112.721,8.02,8.02,0,0,0-.992.812c-.24.271-.3.421-.18.511s.6,0,1.383-.21a21.313,21.313,0,0,0,6.4-3.968,13.377,13.377,0,0,0-5.5,2.255Z" transform="translate(-10191.847 1014.275)" fill="#fff"/><path d="M133.138,182.733a3.006,3.006,0,0,1,2.255.842,2.014,2.014,0,0,1,.661,1.834q-.18.932-1.8,1.082c-3.006.21-6.012.361-8.808.511q-10.191.421-20.321,1.293A43.2,43.2,0,0,0,91.774,191.3c-1.233,1.743-2.435,3.547-3.637,5.441a51.855,51.855,0,0,1-8.327,11,2.465,2.465,0,0,1-2.315.391,2.435,2.435,0,0,1-1.8-1.5,10.341,10.341,0,0,1,1.894-9.71,28.739,28.739,0,0,1,8.6-7.4,5.8,5.8,0,0,1-4.539-1.293,5.171,5.171,0,0,1-.9-6.012,6.854,6.854,0,0,1,4.75-4,2.525,2.525,0,0,1,2.285.6,1.924,1.924,0,0,1,.6,1.834q-.18.992-1.714,1.353a2.706,2.706,0,0,0-1.293,2.826,3.427,3.427,0,0,0,2.826,0,23,23,0,0,0,7-3.427l.361-.21a3.18,3.18,0,0,1,4.118,1.082c.331.6,0,1.233-.752,1.864a14.072,14.072,0,0,0-1.864,1.443,130.316,130.316,0,0,1,25.733-2.4C126.374,183.034,129.8,182.914,133.138,182.733Z" transform="translate(-10162.853 1015.198)" fill="#fff"/><path d="M144.268,184.618a3.006,3.006,0,0,1,2.285.872,2.014,2.014,0,0,1,.631,1.8c0,.661-.691,1.022-1.744,1.112l-6.674.481a122.105,122.105,0,0,1-23.658.21,11.453,11.453,0,0,1-6.4-2.4A46.958,46.958,0,0,1,103.024,190a13.618,13.618,0,0,1-5.621,1.563,3.517,3.517,0,0,1-3.577-2.4,4.81,4.81,0,0,1,1.353-4.72,21.041,21.041,0,0,1,4.028-3.4,21.854,21.854,0,0,1,12.866-3.307,2.4,2.4,0,0,1,1.8.782,1.713,1.713,0,0,1,.361,1.5,1.924,1.924,0,0,1-.992,1.293,1.623,1.623,0,0,1,0,2.014q-.481.812,1.353,1.263a28.16,28.16,0,0,0,4.69.631h7.906A154.342,154.342,0,0,0,144.268,184.618Zm-41.7-.6a8.411,8.411,0,0,0-1.082.721,12.034,12.034,0,0,0-1.022.812c-.24.271-.3.421-.15.511s.571,0,1.353-.21a21.314,21.314,0,0,0,6.4-3.968,13.377,13.377,0,0,0-5.5,2.255Z" transform="translate(-10125.824 1014.276)" fill="#fff"/><path d="M222.625,168.17a3.969,3.969,0,0,1,1.924.481,2.014,2.014,0,0,1,1.172,1.263q.27.812-.812,1.714a69.142,69.142,0,0,1-20.742,9.5c-1.713.541-3.4,1.112-5.02,1.714l-5.712,2.014L182.073,188.7a104.234,104.234,0,0,1,12.986.782,43.439,43.439,0,0,1,20.021,6.193c4,3.006,5.441,6.012,4.389,8.748a16.023,16.023,0,0,1-6.674,7.636,45.09,45.09,0,0,1-9.589,4.87,159.563,159.563,0,0,1-46.084,9.018,75.843,75.843,0,0,1-21.644-1.684,35.856,35.856,0,0,1-7.064-2.225,9.769,9.769,0,0,1-5.291-4.9,6.433,6.433,0,0,1,1.233-6.463,27.6,27.6,0,0,1,5.261-4.87l.6-.511a68.452,68.452,0,0,1,18.037-10.161,2.706,2.706,0,0,1,2.4.241,2.4,2.4,0,0,1,1.263,1.653c0,.691-.331,1.232-1.323,1.623a64.509,64.509,0,0,0-16.985,9.62h0a27.6,27.6,0,0,0-3.307,2.856,7.245,7.245,0,0,0-2.074,3.487,3.487,3.487,0,0,0,1.8,3.427,16.415,16.415,0,0,0,4.69,1.954,50.079,50.079,0,0,0,5.02,1.052h.661a112.549,112.549,0,0,0,41.184-2.465,133.957,133.957,0,0,0,20.2-5.561,40.665,40.665,0,0,0,7.575-3.818,10.762,10.762,0,0,0,4.99-5.712c.631-2.1-.9-4.209-4.6-6.373a48.911,48.911,0,0,0-18.728-4.239,104.008,104.008,0,0,0-22.877.6,3.007,3.007,0,0,1-1.683-.391q-4.419,5.411-8.748,10.822c-1.052,1.263-2.1,2.555-3.006,3.848a2.5,2.5,0,0,1-2.225.812,3.006,3.006,0,0,1-2.1-.962,1.563,1.563,0,0,1,0-2.074q8-9.86,16.023-19.69a.841.841,0,0,0,.15-.691.871.871,0,0,0-.391-.571.691.691,0,0,0-.691,0A214.674,214.674,0,0,0,124.3,205.055a2.826,2.826,0,0,1-2.4.271,3.006,3.006,0,0,1-1.774-1.383c-.3-.631,0-1.233.782-1.834a218.7,218.7,0,0,1,52.036-24.44l.451-.511q1.744-1.924,3.517-3.968a2.134,2.134,0,0,1,1.864-1.593,3.337,3.337,0,0,1,2.465.571,1.443,1.443,0,0,1,.6,1.924h0a.751.751,0,0,0,0,.21.181.181,0,0,0,0,.18.421.421,0,0,0,0,.21.451.451,0,0,0,.241,0h1.112A217.072,217.072,0,0,1,222.625,168.17Zm-27.686,11.784,5.772-1.924a119.19,119.19,0,0,0,13.5-5.02,210.427,210.427,0,0,0-37.907,8.056l-3.607,4.509c-.872.992-1.714,2.044-2.525,3.006l9.71-3.4Z" transform="translate(-10072.994 995.161)" fill="#fff"/><path d="M188.566,186.321a1.713,1.713,0,0,1,1.653.722,1.413,1.413,0,0,1,0,1.5,2.014,2.014,0,0,1-1.714.9q-9.018.451-17.856.451a14.654,14.654,0,0,0-1.623,0,41.9,41.9,0,0,1-7.215-.451,4.1,4.1,0,0,1-.6.331,12.746,12.746,0,0,1-3.788,1.323,4.148,4.148,0,0,1-3.758-.992,3.006,3.006,0,0,1-.451-3.006,12.63,12.63,0,0,1,1.353-3.006,1.684,1.684,0,0,0,.27-.511,2.406,2.406,0,0,1,.691-.661,6.824,6.824,0,0,1,5.8-3.457,6.433,6.433,0,0,1,3.638.661,3.307,3.307,0,0,1,1.834,3.006,5.081,5.081,0,0,1-1.473,3.517h3.337Q178.646,186.832,188.566,186.321Zm-27.777-1.353q-1.293.361-1.082.631a2.1,2.1,0,0,0,1.142.511,3.819,3.819,0,0,0,1.172-1.052C162.022,184.818,161.721,184.788,160.789,184.968Z" transform="translate(-10006.8 1017.744)" fill="#fff"/><path d="M182.686,181.991a1.864,1.864,0,0,1,.752.932,1.293,1.293,0,0,1-.361,1.233c-1.263,1.533-2.555,3.006-3.908,4.569s-2.8,3.217-4.178,4.87A8.387,8.387,0,0,1,181,199.457,7.125,7.125,0,0,1,178,206.131a16.414,16.414,0,0,1-7,3.186,7.365,7.365,0,0,1-5.682-.992,4.629,4.629,0,0,1-1.443-5.261,21.675,21.675,0,0,1,4.569-7.575c-1.022,0-1.984-.271-3.006-.331h-1.082a2.195,2.195,0,0,1-1.744-1.082,1.5,1.5,0,0,1,0-1.653,1.773,1.773,0,0,1,1.834-.661,1.172,1.172,0,0,1,.451,0,46.669,46.669,0,0,1,5.862.782l1.5-1.864a7.9,7.9,0,0,1-1.172.18,4.089,4.089,0,0,1-1.323,0,1.774,1.774,0,0,1-1.082-.782,5.171,5.171,0,0,1,1.112-5.8,14.008,14.008,0,0,1,6.012-4.269,6.012,6.012,0,0,1,6.012.691A1.8,1.8,0,0,1,182.686,181.991Zm-9.59,14.85a.452.452,0,0,0-.27,0h-.3q-1.233,1.623-2.345,3.247a.779.779,0,0,1,0,.211c-.271.331-.631.842-1.052,1.473a13.914,13.914,0,0,0-1.052,1.954c-.271.661-.331,1.142,0,1.443a2.766,2.766,0,0,0,2.615.691,10.461,10.461,0,0,0,3.457-1.172,4.479,4.479,0,0,0,2.044-1.984,4.238,4.238,0,0,0,0-3.728A5.291,5.291,0,0,0,173.1,196.842Zm5.621-14.069a4.057,4.057,0,0,0-1.593.571,15.024,15.024,0,0,0-2.194,1.5,13.164,13.164,0,0,0-1.834,1.834,28.378,28.378,0,0,0,5.471-3.818Z" transform="translate(-9988.023 1017.894)" fill="#fff"/><path d="M210.114,185.1a2.525,2.525,0,0,1,1.834.691,1.653,1.653,0,0,1,.511,1.473c0,.541-.541.812-1.413.9l-5.411.391a102.626,102.626,0,0,1-19.209.18,9.5,9.5,0,0,1-5.171-1.954,42.09,42.09,0,0,1-4.6,2.675,11.063,11.063,0,0,1-4.569,1.263,2.8,2.8,0,0,1-3.006-1.954,3.848,3.848,0,0,1,1.082-3.818,17.612,17.612,0,0,1,3.277-2.766,17.8,17.8,0,0,1,10.431-2.675,1.924,1.924,0,0,1,1.443.631,1.383,1.383,0,0,1,.3,1.2,1.623,1.623,0,0,1-.812,1.082,1.233,1.233,0,0,1,0,1.623c-.24.421,0,.782,1.142,1.022a21.823,21.823,0,0,0,3.788.511h6.433C200.855,185.611,205.484,185.4,210.114,185.1Zm-33.819-.511-.9.6a6.934,6.934,0,0,0-.812.661c-.21.21-.24.331,0,.421a2.014,2.014,0,0,0,1.112-.18,16.745,16.745,0,0,0,5.2-3.217,10.551,10.551,0,0,0-4.6,1.713Z" transform="translate(-9974.808 1017.852)" fill="#fff"/><path d="M239.3,186.467a1.429,1.429,0,0,1,1.293,2.375,2.1,2.1,0,0,1-1.834.752H211.2a10.643,10.643,0,0,0-1.353,0,35.729,35.729,0,0,1-3.577,0,5.621,5.621,0,0,1-3.006-1.082,3.006,3.006,0,0,1-1.112-1.413v-.872a42.8,42.8,0,0,0-3.728,2.675l-2.645,1.894a2.375,2.375,0,0,1-1.563.361,1.984,1.984,0,0,1-1.353-.631,1.293,1.293,0,0,1-.15-1.413c.571-1.293,1.172-2.555,1.864-3.788a73.715,73.715,0,0,0-6.944,3.788l-3.006,1.774a2.8,2.8,0,0,1-1.563.361,2.135,2.135,0,0,1-1.323-.571,1.232,1.232,0,0,1,0-1.443,91.948,91.948,0,0,1,4.118-8.477,2.074,2.074,0,0,1,1.623-1.052,2.585,2.585,0,0,1,1.8.451,1.2,1.2,0,0,1,.27,1.593c-.661,1.232-1.293,2.465-1.894,3.728a35.654,35.654,0,0,1,10.762-4.689,3.007,3.007,0,0,1,1.172.18,1.8,1.8,0,0,1,.992.722.962.962,0,0,1,0,1.172,7.552,7.552,0,0,1-.451.721l-.241.3a23.024,23.024,0,0,1,3.908-2.014,2.706,2.706,0,0,1,1.293-.15,1.864,1.864,0,0,1,1.112.541,1.683,1.683,0,0,1,.511.872,2.166,2.166,0,0,1,0,.751,2.337,2.337,0,0,0,0,.481,1.774,1.774,0,0,0,0,.631,3.457,3.457,0,0,0,3.006,1.623,25.663,25.663,0,0,0,4.81,0h2.044Z" transform="translate(-9949.616 1018.259)" fill="#fff"/><path d="M257.418,186.466a1.413,1.413,0,0,1,1.263,2.375,2.074,2.074,0,0,1-1.834.752H229.281a10.453,10.453,0,0,0-1.323,0h-3.607a5.5,5.5,0,0,1-3.006-1.082,2.615,2.615,0,0,1-1.112-1.413v-.872a39.089,39.089,0,0,0-3.758,2.675L213.86,190.8a2.465,2.465,0,0,1-1.593.361,2.044,2.044,0,0,1-1.353-.631,1.293,1.293,0,0,1,0-1.413c.541-1.293,1.172-2.555,1.834-3.788a73.235,73.235,0,0,0-6.914,3.788l-3.006,1.774a3.006,3.006,0,0,1-1.563.361,2.165,2.165,0,0,1-1.353-.571,1.262,1.262,0,0,1,0-1.443,85.065,85.065,0,0,1,4.148-8.477,1.984,1.984,0,0,1,1.623-1.052,2.525,2.525,0,0,1,1.774.451,1.2,1.2,0,0,1,.271,1.593c-.661,1.232-1.293,2.465-1.894,3.728a36.074,36.074,0,0,1,10.762-4.689,2.8,2.8,0,0,1,1.172.18,1.984,1.984,0,0,1,1.022.721,1.022,1.022,0,0,1,0,1.172,7.589,7.589,0,0,1-.451.721,2.58,2.58,0,0,1-.211.3,21.053,21.053,0,0,1,3.908-2.014,2.585,2.585,0,0,1,1.262-.15,1.954,1.954,0,0,1,1.142.541,1.834,1.834,0,0,1,.481.872,1.322,1.322,0,0,1,0,.752,2.436,2.436,0,0,0,0,.481,2.648,2.648,0,0,0,0,.631,3.457,3.457,0,0,0,3.006,1.623,25.757,25.757,0,0,0,4.81,0h2.074Z" transform="translate(-9913.141 1018.259)" fill="#fff"/><path d="M259.109,185.1a2.465,2.465,0,0,1,1.834.691,1.684,1.684,0,0,1,.541,1.473c0,.541-.571.812-1.413.9l-5.441.391a102.207,102.207,0,0,1-19.179.18,9.619,9.619,0,0,1-5.2-1.954,42.078,42.078,0,0,1-4.6,2.676,10.944,10.944,0,0,1-4.539,1.262,2.826,2.826,0,0,1-3.006-1.954,3.908,3.908,0,0,1,1.082-3.818,17.618,17.618,0,0,1,3.277-2.766,17.8,17.8,0,0,1,10.431-2.675,1.864,1.864,0,0,1,1.443.631,1.383,1.383,0,0,1,.331,1.2,1.623,1.623,0,0,1-.812,1.082,1.263,1.263,0,0,1,0,1.623c-.271.421,0,.782,1.112,1.022a22.252,22.252,0,0,0,3.788.511H245.1C249.85,185.611,254.479,185.4,259.109,185.1Zm-33.819-.511a9.37,9.37,0,0,0-.9.6,6.934,6.934,0,0,0-.812.661c-.18.21-.241.331,0,.421a2.014,2.014,0,0,0,1.112-.18,17.1,17.1,0,0,0,5.2-3.217A10.672,10.672,0,0,0,225.29,184.589Z" transform="translate(-9876.443 1017.852)" fill="#fff"/><path d="M277.142,186.672a1.714,1.714,0,0,1,1.623.9,1.5,1.5,0,0,1,0,1.5,2.044,2.044,0,0,1-1.744.782c-7-.21-14.009-.27-21.043-.24h-11.6a37.757,37.757,0,0,0-4.118.18,29.217,29.217,0,0,1-6.313,5.832,3.005,3.005,0,0,1-1.714.391,2.1,2.1,0,0,1-1.473-.812c-1.443-2.615-1.353-4.539.3-5.8a12.235,12.235,0,0,1,6.012-2.4,24.048,24.048,0,0,0,1.5-2.585c-.932-2.285-1.984-2.766-3.006-1.383a2.044,2.044,0,0,1-1.894.3,2.315,2.315,0,0,1-1.413-1.082c-.24-.511,0-1.052.571-1.563a11.213,11.213,0,0,1,5.441-2.315,4.148,4.148,0,0,1,4.66,2.706,6.674,6.674,0,0,1-.661,5.471Q259.677,186.221,277.142,186.672Z" transform="translate(-9852.842 1015.498)" fill="#fff"/></g></svg>