<svg xmlns="http://www.w3.org/2000/svg" width="143.751" height="162.248" viewBox="0 0 143.751 162.248"><g opacity="0.1"><path d="M215.371,99.568H149.455V78.11h-9.949V99.568H123.9v9.968h15.606v36.518h9.949V109.537h65.9a7.393,7.393,0,0,1,7.413,7.374v73.095a7.393,7.393,0,0,1-7.393,7.393h-4.116a53.562,53.562,0,0,1-5.443,9.968h9.559a17.381,17.381,0,0,0,17.362-17.362V116.911a17.381,17.381,0,0,0-17.362-17.342Z" transform="translate(-88.982 -64.845)" fill="#3f3f3f"/><path d="M177.9,132.134V142.1a40.829,40.829,0,1,1-40.829,40.829V71.31h-9.968v34.723h-3.8A17.381,17.381,0,0,0,106,123.376V196.47a17.381,17.381,0,0,0,17.362,17.362h14.221a50.72,50.72,0,1,0,40.264-81.717ZM123.42,203.883a7.393,7.393,0,0,1-7.393-7.393V123.376a7.413,7.413,0,0,1,7.315-7.393h3.765v66.93a50.518,50.518,0,0,0,4.55,20.962Z" transform="translate(-106 -71.31)" fill="#3f3f3f"/></g></svg>