<svg xmlns="http://www.w3.org/2000/svg" width="230.825" height="43.531" viewBox="0 0 230.825 43.531"><g transform="translate(-228.703 -42.5)"><g transform="translate(228.703 42.658)"><path d="M148.353,83.846H130.731V78.11h-2.66v5.736H123.9v2.665h4.172v9.762h2.66V86.511h17.616a1.976,1.976,0,0,1,1.982,1.971v19.54A1.976,1.976,0,0,1,148.353,110h-1.1a14.319,14.319,0,0,1-1.455,2.665h2.555a4.646,4.646,0,0,0,4.641-4.641V88.482a4.646,4.646,0,0,0-4.641-4.636Z" transform="translate(-114.565 -74.564)"/><path d="M125.222,87.57v2.665a10.915,10.915,0,1,1-10.915,10.915V71.31h-2.665v9.282h-1.017A4.646,4.646,0,0,0,106,85.228v19.54a4.646,4.646,0,0,0,4.641,4.641h3.8a13.559,13.559,0,1,0,10.764-21.845Zm-14.565,19.18a1.976,1.976,0,0,1-1.976-1.976V85.228a1.982,1.982,0,0,1,1.956-1.976h1.006v17.892a13.5,13.5,0,0,0,1.216,5.6Z" transform="translate(-106 -71.31)"/></g><g transform="translate(278.639 42.5)"><path d="M70.665,163.733a.762.762,0,0,1,.744.333.709.709,0,0,1,0,.683.876.876,0,0,1-.762.412q-4.957.237-9.88.876a1.979,1.979,0,0,0-1.489,1q-2.917,5.255-5.334,10.764a.771.771,0,0,1-.674.447,1.288,1.288,0,0,1-.876-.2.534.534,0,0,1-.2-.7q2.286-5.255,5.027-10.23a.359.359,0,0,0,0-.394.4.4,0,0,0-.377-.166c-1.252.193-2.514.394-3.766.622a2.54,2.54,0,0,0-1.752,1.244,165.222,165.222,0,0,0-9.923,21.4.806.806,0,0,1-.674.447,1.218,1.218,0,0,1-.876-.2.578.578,0,0,1-.21-.727A163.862,163.862,0,0,1,49.277,168.5a.359.359,0,0,0,0-.385.333.333,0,0,0-.359-.131q-3.284.683-6.551,1.524a.806.806,0,0,1-.815-.175.709.709,0,0,1-.219-.657q.07-.368.631-.552,3.74-.955,7.515-1.752a2.54,2.54,0,0,0,1.69-1.2,166.088,166.088,0,0,1,10.992-16.711.876.876,0,0,1,.779-.289,1.147,1.147,0,0,1,.744.35.552.552,0,0,1,0,.744,165.124,165.124,0,0,0-10.44,15.713.429.429,0,0,0,0,.447.385.385,0,0,0,.4.158c1.288-.219,2.558-.412,3.827-.587a2.014,2.014,0,0,0,1.445-.955,120.781,120.781,0,0,1,8.163-12.262.876.876,0,0,1,.771-.315,1.217,1.217,0,0,1,.753.35.569.569,0,0,1,0,.744,126.632,126.632,0,0,0-7.646,11.386.412.412,0,0,0,0,.4.35.35,0,0,0,.359.158Q65.988,163.978,70.665,163.733Z" transform="translate(-39.589 -148.16)"/><path d="M75.5,179.714a.876.876,0,0,1,.657.254.569.569,0,0,1,.193.525c0,.193-.2.3-.508.324l-1.944.14a35.67,35.67,0,0,1-6.9.061,3.337,3.337,0,0,1-1.866-.7,14.26,14.26,0,0,1-1.647.963,4,4,0,0,1-1.638.455,1.025,1.025,0,0,1-1.042-.7,1.4,1.4,0,0,1,.394-1.375,5.877,5.877,0,0,1,1.174-.99,6.35,6.35,0,0,1,3.749-.963.666.666,0,0,1,.517.228.534.534,0,0,1,.114.438.561.561,0,0,1-.289.377.464.464,0,0,1,0,.587c-.088.158.044.28.4.368a8.076,8.076,0,0,0,1.366.184h2.3A44.881,44.881,0,0,0,75.5,179.714Zm-12.148-.175a3.272,3.272,0,0,0-.324.21,2.335,2.335,0,0,0-.289.236c-.07.079-.088.123-.053.149s.175,0,.4-.061a6.21,6.21,0,0,0,1.866-1.156,3.9,3.9,0,0,0-1.6.657Z" transform="translate(-42.217 -151.827)"/><path d="M92.088,179.491a.876.876,0,0,1,.657.245.587.587,0,0,1,.193.534q-.053.271-.526.315c-.876.061-1.752.105-2.566.149q-2.969.123-5.921.377a12.586,12.586,0,0,0-3.889.876c-.359.508-.709,1.033-1.06,1.585a15.109,15.109,0,0,1-2.426,3.206.718.718,0,0,1-.674.114.709.709,0,0,1-.526-.438,3.013,3.013,0,0,1,.552-2.829,8.373,8.373,0,0,1,2.5-2.155,1.691,1.691,0,0,1-1.323-.377,1.507,1.507,0,0,1-.263-1.752,2,2,0,0,1,1.384-1.165.736.736,0,0,1,.666.175.561.561,0,0,1,.175.534q-.053.289-.5.394a.788.788,0,0,0-.377.823,1,1,0,0,0,.823,0,6.7,6.7,0,0,0,2.041-1l.105-.061a.926.926,0,0,1,1.2.315c.1.175,0,.359-.219.543a4.1,4.1,0,0,0-.543.42,37.967,37.967,0,0,1,7.5-.7C90.117,179.579,91.116,179.544,92.088,179.491Z" transform="translate(-44.011 -151.884)"/><path d="M108.41,179.714a.876.876,0,0,1,.666.254.587.587,0,0,1,.184.526c0,.193-.2.3-.508.324l-1.944.14a35.576,35.576,0,0,1-6.893.061,3.337,3.337,0,0,1-1.866-.7,13.682,13.682,0,0,1-1.655.963,3.968,3.968,0,0,1-1.638.455,1.025,1.025,0,0,1-1.042-.7,1.4,1.4,0,0,1,.394-1.375,6.13,6.13,0,0,1,1.174-.99,6.367,6.367,0,0,1,3.749-.963.7.7,0,0,1,.526.228.5.5,0,0,1,.105.438.561.561,0,0,1-.289.377.473.473,0,0,1,0,.587q-.14.237.394.368a8.207,8.207,0,0,0,1.366.184h2.3A44.967,44.967,0,0,0,108.41,179.714Zm-12.148-.175a2.449,2.449,0,0,0-.315.21,3.5,3.5,0,0,0-.3.236c-.07.079-.088.123-.044.149s.166,0,.394-.061a6.21,6.21,0,0,0,1.866-1.156,3.9,3.9,0,0,0-1.6.657Z" transform="translate(-46.303 -151.827)"/><path d="M149.9,168.17a1.156,1.156,0,0,1,.561.14.587.587,0,0,1,.342.368q.079.236-.236.5a20.145,20.145,0,0,1-6.043,2.768c-.5.158-.99.324-1.463.5l-1.664.587-3.311,1.121a30.366,30.366,0,0,1,3.784.228,12.656,12.656,0,0,1,5.833,1.8c1.165.876,1.585,1.752,1.279,2.549a4.668,4.668,0,0,1-1.944,2.225,13.137,13.137,0,0,1-2.794,1.419A46.489,46.489,0,0,1,130.817,185a22.1,22.1,0,0,1-6.306-.49,10.447,10.447,0,0,1-2.058-.648,2.846,2.846,0,0,1-1.542-1.428,1.874,1.874,0,0,1,.359-1.883,8.04,8.04,0,0,1,1.533-1.419l.175-.149a19.944,19.944,0,0,1,5.255-2.96.788.788,0,0,1,.7.07.7.7,0,0,1,.368.482c0,.2-.1.359-.385.473a18.8,18.8,0,0,0-4.949,2.8h0a8.037,8.037,0,0,0-.963.832,2.111,2.111,0,0,0-.6,1.016,1.016,1.016,0,0,0,.526,1,4.782,4.782,0,0,0,1.366.569,14.593,14.593,0,0,0,1.463.307h.193a32.792,32.792,0,0,0,12-.718,39.03,39.03,0,0,0,5.886-1.62,11.849,11.849,0,0,0,2.207-1.112,3.136,3.136,0,0,0,1.454-1.664c.184-.613-.263-1.226-1.34-1.857a14.25,14.25,0,0,0-5.457-1.235,30.3,30.3,0,0,0-6.665.175.876.876,0,0,1-.49-.114q-1.288,1.577-2.549,3.153c-.307.368-.613.744-.876,1.121a.727.727,0,0,1-.648.236.876.876,0,0,1-.613-.28.455.455,0,0,1,0-.6q2.33-2.873,4.668-5.737a.245.245,0,0,0,.044-.2.254.254,0,0,0-.114-.166.2.2,0,0,0-.2,0,62.547,62.547,0,0,0-12,5.965.823.823,0,0,1-.7.079.876.876,0,0,1-.517-.4c-.088-.184,0-.359.228-.534a63.719,63.719,0,0,1,15.161-7.121l.131-.149q.508-.561,1.025-1.156a.622.622,0,0,1,.543-.464.972.972,0,0,1,.718.166.42.42,0,0,1,.175.561h0a.219.219,0,0,0,0,.061.053.053,0,0,0,0,.053.123.123,0,0,0,0,.061.131.131,0,0,0,.07,0h.324A63.245,63.245,0,0,1,149.9,168.17Zm-8.067,3.433,1.682-.561a34.728,34.728,0,0,0,3.933-1.463,61.307,61.307,0,0,0-11.045,2.347l-1.051,1.314c-.254.289-.5.6-.736.876l2.829-.99Z" transform="translate(-49.572 -150.644)"/><path d="M163.361,181.435a.5.5,0,0,1,.482.21.412.412,0,0,1,0,.438.587.587,0,0,1-.5.263q-2.628.131-5.2.131a4.26,4.26,0,0,0-.473,0,12.21,12.21,0,0,1-2.1-.131,1.192,1.192,0,0,1-.175.1,3.713,3.713,0,0,1-1.1.385,1.209,1.209,0,0,1-1.095-.289.876.876,0,0,1-.131-.876,3.68,3.68,0,0,1,.394-.876.49.49,0,0,0,.079-.149.7.7,0,0,1,.2-.193,1.988,1.988,0,0,1,1.69-1.007,1.874,1.874,0,0,1,1.06.193.963.963,0,0,1,.534.876,1.48,1.48,0,0,1-.429,1.025h.972Q160.471,181.584,163.361,181.435Zm-8.093-.394q-.377.105-.315.184a.613.613,0,0,0,.333.149,1.112,1.112,0,0,0,.342-.307C155.627,181,155.54,180.989,155.268,181.041Z" transform="translate(-53.668 -152.042)"/><path d="M168.281,180.227a.543.543,0,0,1,.219.272.377.377,0,0,1-.105.359c-.368.447-.744.876-1.139,1.331s-.815.937-1.217,1.419a2.444,2.444,0,0,1,1.752,1.708,2.076,2.076,0,0,1-.876,1.944,4.782,4.782,0,0,1-2.041.928,2.146,2.146,0,0,1-1.655-.289,1.349,1.349,0,0,1-.42-1.533,6.315,6.315,0,0,1,1.331-2.207c-.3,0-.578-.079-.876-.1h-.315a.639.639,0,0,1-.508-.315.438.438,0,0,1,0-.482.517.517,0,0,1,.534-.193.341.341,0,0,1,.131,0,13.6,13.6,0,0,1,1.708.228l.438-.543a2.3,2.3,0,0,1-.342.053,1.192,1.192,0,0,1-.385,0,.517.517,0,0,1-.315-.228,1.506,1.506,0,0,1,.324-1.69,4.081,4.081,0,0,1,1.752-1.244,1.752,1.752,0,0,1,1.752.2A.526.526,0,0,1,168.281,180.227Zm-2.794,4.327a.131.131,0,0,0-.079,0h-.088q-.359.473-.683.946a.227.227,0,0,1,0,.061c-.079.1-.184.245-.307.429a4.053,4.053,0,0,0-.307.569c-.079.193-.1.333,0,.42a.806.806,0,0,0,.762.2,3.047,3.047,0,0,0,1.007-.342,1.3,1.3,0,0,0,.6-.578,1.235,1.235,0,0,0,0-1.086A1.542,1.542,0,0,0,165.487,184.554Zm1.638-4.1a1.182,1.182,0,0,0-.464.166,4.383,4.383,0,0,0-.639.438,3.838,3.838,0,0,0-.534.534,8.267,8.267,0,0,0,1.594-1.112Z" transform="translate(-54.83 -152.051)"/><path d="M180.94,181.118a.736.736,0,0,1,.534.2.482.482,0,0,1,.149.429c0,.158-.158.236-.412.263l-1.577.114a29.9,29.9,0,0,1-5.6.053,2.767,2.767,0,0,1-1.506-.569,12.258,12.258,0,0,1-1.34.78,3.223,3.223,0,0,1-1.331.368.815.815,0,0,1-.876-.569,1.121,1.121,0,0,1,.315-1.112,5.13,5.13,0,0,1,.955-.806,5.185,5.185,0,0,1,3.039-.78.561.561,0,0,1,.42.184.4.4,0,0,1,.088.35.473.473,0,0,1-.236.315.359.359,0,0,1,0,.473c-.07.123,0,.228.333.3a6.358,6.358,0,0,0,1.1.149h1.874C178.242,181.267,179.591,181.206,180.94,181.118Zm-9.853-.149-.263.175a2.019,2.019,0,0,0-.236.193c-.061.061-.07.1,0,.123a.587.587,0,0,0,.324-.053,4.879,4.879,0,0,0,1.515-.937,3.074,3.074,0,0,0-1.34.5Z" transform="translate(-55.648 -152.048)"/><path d="M198.343,181.66a.416.416,0,0,1,.377.692.613.613,0,0,1-.534.219h-8.032a3.094,3.094,0,0,0-.394,0,10.41,10.41,0,0,1-1.042,0,1.638,1.638,0,0,1-.876-.315.876.876,0,0,1-.324-.412v-.254a12.471,12.471,0,0,0-1.086.779l-.771.552a.692.692,0,0,1-.455.105.578.578,0,0,1-.394-.184.377.377,0,0,1-.044-.412c.166-.377.342-.744.543-1.1a21.479,21.479,0,0,0-2.023,1.1l-.876.517a.814.814,0,0,1-.455.105.622.622,0,0,1-.385-.166.359.359,0,0,1,0-.42,26.789,26.789,0,0,1,1.2-2.47.6.6,0,0,1,.473-.307.753.753,0,0,1,.526.131.35.35,0,0,1,.079.464c-.193.359-.377.718-.552,1.086A10.387,10.387,0,0,1,186.431,180a.876.876,0,0,1,.342.053.526.526,0,0,1,.289.21.28.28,0,0,1,0,.342,2.2,2.2,0,0,1-.131.21l-.07.088A6.708,6.708,0,0,1,188,180.32a.788.788,0,0,1,.377-.044.543.543,0,0,1,.324.158.49.49,0,0,1,.149.254.631.631,0,0,1,0,.219.683.683,0,0,0,0,.14.517.517,0,0,0,0,.184,1.007,1.007,0,0,0,.876.473,7.474,7.474,0,0,0,1.4,0h.6Z" transform="translate(-57.207 -152.074)"/><path d="M216.506,181.66a.412.412,0,0,1,.368.692.6.6,0,0,1-.534.219h-8.032a3.044,3.044,0,0,0-.385,0h-1.051a1.6,1.6,0,0,1-.876-.315.762.762,0,0,1-.324-.412v-.254a11.39,11.39,0,0,0-1.095.78l-.762.552a.718.718,0,0,1-.464.105.6.6,0,0,1-.394-.184.377.377,0,0,1,0-.412c.158-.377.342-.744.534-1.1a21.335,21.335,0,0,0-2.014,1.1l-.876.517a.876.876,0,0,1-.455.105.631.631,0,0,1-.394-.166.368.368,0,0,1,0-.42,24.779,24.779,0,0,1,1.209-2.47.578.578,0,0,1,.473-.307.736.736,0,0,1,.517.131.35.35,0,0,1,.079.464c-.193.359-.377.718-.552,1.086A10.511,10.511,0,0,1,204.612,180a.815.815,0,0,1,.342.053.578.578,0,0,1,.3.21.3.3,0,0,1,0,.342,2.215,2.215,0,0,1-.131.21.751.751,0,0,1-.061.088,6.135,6.135,0,0,1,1.139-.587.754.754,0,0,1,.368-.044.569.569,0,0,1,.333.158.534.534,0,0,1,.14.254.385.385,0,0,1,0,.219.707.707,0,0,0,0,.14.771.771,0,0,0,0,.184,1.007,1.007,0,0,0,.876.473,7.5,7.5,0,0,0,1.4,0h.6Z" transform="translate(-59.464 -152.074)"/><path d="M229.961,181.118a.718.718,0,0,1,.534.2.49.49,0,0,1,.158.429c0,.158-.166.236-.412.263l-1.585.114a29.779,29.779,0,0,1-5.588.053,2.8,2.8,0,0,1-1.515-.569,12.263,12.263,0,0,1-1.34.78,3.189,3.189,0,0,1-1.323.368.823.823,0,0,1-.876-.569,1.139,1.139,0,0,1,.315-1.112,5.133,5.133,0,0,1,.955-.806,5.185,5.185,0,0,1,3.039-.78.543.543,0,0,1,.42.184.4.4,0,0,1,.1.35.473.473,0,0,1-.237.315.368.368,0,0,1,0,.473c-.079.123,0,.228.324.3a6.483,6.483,0,0,0,1.1.149h1.848C227.264,181.267,228.613,181.206,229.961,181.118Zm-9.853-.149a2.726,2.726,0,0,0-.263.175,2.016,2.016,0,0,0-.237.193c-.053.061-.07.1,0,.123a.587.587,0,0,0,.324-.053,4.983,4.983,0,0,0,1.515-.937A3.109,3.109,0,0,0,220.108,180.969Z" transform="translate(-61.735 -152.048)"/><path d="M243.553,180.745a.5.5,0,0,1,.473.263.438.438,0,0,1,0,.438.6.6,0,0,1-.508.228c-2.041-.061-4.081-.079-6.131-.07h-3.381a11,11,0,0,0-1.2.053,8.512,8.512,0,0,1-1.839,1.7.876.876,0,0,1-.5.114.613.613,0,0,1-.429-.236c-.42-.762-.394-1.323.088-1.69a3.565,3.565,0,0,1,1.752-.7,7.007,7.007,0,0,0,.438-.753c-.271-.666-.578-.806-.876-.4a.6.6,0,0,1-.552.088.674.674,0,0,1-.412-.315c-.07-.149,0-.307.166-.455a3.267,3.267,0,0,1,1.585-.674,1.209,1.209,0,0,1,1.358.788,1.944,1.944,0,0,1-.193,1.594Q238.464,180.613,243.553,180.745Z" transform="translate(-63.195 -151.903)"/></g></g></svg>