<svg xmlns="http://www.w3.org/2000/svg" width="30.991" height="25.171" viewBox="0 0 30.991 25.171"><path d="M27.806,9.654c.02.275.02.551.02.826,0,8.4-6.391,18.072-18.072,18.072A17.949,17.949,0,0,1,0,25.7a13.14,13.14,0,0,0,1.534.079,12.721,12.721,0,0,0,7.886-2.714,6.363,6.363,0,0,1-5.939-4.4,8.01,8.01,0,0,0,1.2.1,6.718,6.718,0,0,0,1.671-.216,6.353,6.353,0,0,1-5.093-6.234V12.23a6.4,6.4,0,0,0,2.871.806,6.361,6.361,0,0,1-1.966-8.5,18.054,18.054,0,0,0,13.1,6.647A7.17,7.17,0,0,1,15.1,9.732,6.358,6.358,0,0,1,26.095,5.387a12.505,12.505,0,0,0,4.031-1.534,6.335,6.335,0,0,1-2.792,3.5,12.733,12.733,0,0,0,3.658-.983,13.654,13.654,0,0,1-3.186,3.284Z" transform="translate(0 -3.381)" fill="#fff"/></svg>