<svg xmlns="http://www.w3.org/2000/svg" width="16.676" height="16.68" viewBox="0 0 16.676 16.68"><g transform="translate(-3.938 -3.938)"><path d="M12.277,20.617A8.34,8.34,0,0,1,6.489,6.273a.669.669,0,1,1,.93.963,7,7,0,1,0,5.525-1.927V7.92a.671.671,0,1,1-1.343,0V4.609a.671.671,0,0,1,.671-.671,8.34,8.34,0,0,1,0,16.68Z"/><path d="M11.914,11.33l4.149,2.981A1.255,1.255,0,1,1,14.6,16.355a1.212,1.212,0,0,1-.292-.292L11.33,11.914a.418.418,0,0,1,.584-.584Z" transform="translate(-2.977 -2.976)"/></g></svg>